<svg xmlns="http://www.w3.org/2000/svg" xmlns:xlink="http://www.w3.org/1999/xlink" width="1200" zoomAndPan="magnify" viewBox="0 0 900 449.999984" height="600" preserveAspectRatio="xMidYMid meet" version="1.0"><defs><g/></defs><g fill="#ffffff" fill-opacity="0.4"><g transform="translate(173.261194, 191.249372)"><g><path d="M 77.859375 -125.65625 L 81.4375 -125.65625 L 81.4375 -114.921875 C 81.4375 -109.785156 81.554688 -101.847656 81.796875 -91.109375 C 82.160156 -82.878906 82.34375 -74.347656 82.34375 -65.515625 C 82.34375 -61.578125 82.28125 -58.65625 82.15625 -56.75 L 81.984375 -47.96875 C 81.742188 -39.019531 81.207031 -31.59375 80.375 -25.6875 C 79.539062 -19.78125 77.570312 -14.226562 74.46875 -9.03125 C 71.363281 -3.84375 66.585938 -0.0546875 60.140625 2.328125 L 60.328125 2.328125 C 54.835938 5.304688 47.851562 6.796875 39.375 6.796875 C 24.820312 6.796875 14.410156 1.726562 8.140625 -8.40625 C 1.878906 -18.550781 -1.25 -31.144531 -1.25 -46.1875 L -1.078125 -52.984375 C 0.710938 -53.578125 2.769531 -53.929688 5.09375 -54.046875 C 7.425781 -54.171875 9.726562 -54.234375 12 -54.234375 C 19.394531 -54.234375 25.476562 -53.695312 30.25 -52.625 L 30.25 -49.578125 L 33.828125 -49.046875 L 33.828125 -46.546875 C 33.828125 -45.941406 33.945312 -44.144531 34.1875 -41.15625 C 34.425781 -38.175781 35.113281 -35.789062 36.25 -34 C 37.382812 -32.21875 38.960938 -31.328125 40.984375 -31.328125 C 43.253906 -31.328125 44.957031 -32.367188 46.09375 -34.453125 C 47.226562 -36.546875 47.972656 -39.144531 48.328125 -42.25 C 47.847656 -56.207031 47.609375 -73.09375 47.609375 -92.90625 C 47.492188 -94.332031 47.4375 -96.539062 47.4375 -99.53125 C 47.4375 -102.382812 47.554688 -106.675781 47.796875 -112.40625 C 48.035156 -118.375 48.15625 -122.851562 48.15625 -125.84375 L 48.15625 -128.875 L 77.859375 -129.234375 Z M 49.9375 -125.84375 C 49.582031 -114.738281 49.40625 -103.757812 49.40625 -92.90625 C 49.40625 -73.8125 49.644531 -56.925781 50.125 -42.25 C 49.757812 -38.664062 48.832031 -35.648438 47.34375 -33.203125 C 45.851562 -30.753906 43.734375 -29.53125 40.984375 -29.53125 C 36.453125 -29.53125 33.320312 -31.5 31.59375 -35.4375 C 29.863281 -39.375 28.820312 -44.269531 28.46875 -50.125 L 28.46875 -51.1875 C 22.851562 -52.03125 17.363281 -52.453125 12 -52.453125 C 7.695312 -52.453125 3.9375 -52.148438 0.71875 -51.546875 C 0.59375 -50.234375 0.53125 -48.382812 0.53125 -46 C 0.53125 -35.144531 2.203125 -25.359375 5.546875 -16.640625 C 8.890625 -7.929688 14.554688 -2.382812 22.546875 0 C 27.328125 0.957031 31.742188 1.4375 35.796875 1.4375 C 43.429688 1.4375 50.175781 0.00390625 56.03125 -2.859375 C 62.113281 -5.128906 66.613281 -8.769531 69.53125 -13.78125 C 72.457031 -18.789062 74.304688 -24.160156 75.078125 -29.890625 C 75.859375 -35.617188 76.367188 -42.835938 76.609375 -51.546875 C 76.609375 -54.890625 76.671875 -57.335938 76.796875 -58.890625 C 76.910156 -60.921875 76.9375 -62.679688 76.875 -64.171875 C 76.820312 -65.660156 76.796875 -66.941406 76.796875 -68.015625 C 76.796875 -76.734375 76.613281 -85.265625 76.25 -93.609375 C 76.007812 -104.828125 75.890625 -113.125 75.890625 -118.5 C 75.890625 -122.4375 75.953125 -125.421875 76.078125 -127.453125 L 49.9375 -127.09375 Z M 49.9375 -125.84375 "/></g></g></g><g fill="#ffffff" fill-opacity="0.4"><g transform="translate(256.134585, 191.249372)"><g><path d="M 6.4375 -82.34375 C 8.226562 -86.15625 11.78125 -89.015625 17.09375 -90.921875 C 22.40625 -92.835938 28.398438 -93.796875 35.078125 -93.796875 C 36.035156 -93.671875 38.242188 -93.609375 41.703125 -93.609375 L 46 -93.796875 C 50.539062 -93.796875 54.957031 -93.078125 59.25 -91.640625 C 63.539062 -90.210938 67.117188 -88.128906 69.984375 -85.390625 L 69.8125 -85.390625 C 70.164062 -84.910156 70.703125 -84.28125 71.421875 -83.5 C 72.140625 -82.726562 72.796875 -82.160156 73.390625 -81.796875 L 73.21875 -81.984375 C 76.4375 -79.835938 78.609375 -75.539062 79.734375 -69.09375 C 80.867188 -62.644531 81.4375 -54.648438 81.4375 -45.109375 C 81.4375 -36.640625 80.898438 -27.867188 79.828125 -18.796875 C 78.753906 -9.722656 77.265625 -4.113281 75.359375 -1.96875 C 72.847656 1.613281 69.445312 4.0625 65.15625 5.375 C 60.863281 6.6875 55.851562 7.34375 50.125 7.34375 C 44.03125 7.34375 39.101562 7.160156 35.34375 6.796875 C 31.59375 6.441406 27.894531 5.457031 24.25 3.84375 C 20.613281 2.238281 17.125 -0.296875 13.78125 -3.765625 L 12.171875 -5.375 C 8.472656 -8.832031 5.96875 -13.273438 4.65625 -18.703125 C 3.34375 -24.128906 2.6875 -30.484375 2.6875 -37.765625 L 2.6875 -44.21875 L 2.859375 -50.296875 C 2.859375 -51.734375 2.796875 -53.109375 2.671875 -54.421875 C 2.554688 -55.734375 2.5 -56.925781 2.5 -58 C 2.5 -63.125 2.617188 -67 2.859375 -69.625 C 3.097656 -72.25 3.992188 -75.414062 5.546875 -79.125 L 5.375 -79.125 C 5.488281 -79.832031 5.632812 -80.546875 5.8125 -81.265625 C 6 -81.984375 6.207031 -82.460938 6.4375 -82.703125 L 6.4375 -82.515625 L 6.265625 -81.984375 Z M 4.46875 -50.65625 L 4.46875 -37.40625 C 4.46875 -26.90625 6.226562 -18.222656 9.75 -11.359375 C 13.269531 -4.503906 19.625 -0.300781 28.8125 1.25 L 37.234375 1.4375 C 41.285156 1.675781 44.445312 1.796875 46.71875 1.796875 C 52.320312 1.796875 57.09375 1.195312 61.03125 0 C 64.976562 -1.195312 68.082031 -3.40625 70.34375 -6.625 C 72.375 -8.65625 73.71875 -13.1875 74.375 -20.21875 C 75.03125 -27.257812 75.597656 -36.75 76.078125 -48.6875 C 76.078125 -49.757812 75.957031 -53.609375 75.71875 -60.234375 C 75.476562 -66.859375 74.789062 -72.164062 73.65625 -76.15625 C 72.519531 -80.15625 70.878906 -82.8125 68.734375 -84.125 C 63.367188 -89.375 55.550781 -92 45.28125 -92 L 38.484375 -91.828125 C 36.929688 -91.828125 35.738281 -91.882812 34.90625 -92 C 28.820312 -92 23.210938 -91.101562 18.078125 -89.3125 C 12.941406 -87.53125 9.601562 -84.96875 8.0625 -81.625 C 6.75 -76.96875 5.789062 -72.847656 5.1875 -69.265625 C 4.59375 -65.691406 4.296875 -61.992188 4.296875 -58.171875 Z M 41.171875 -64.984375 C 49.523438 -64.984375 53.703125 -58.773438 53.703125 -46.359375 C 53.703125 -41.222656 53.460938 -37.132812 52.984375 -34.09375 C 52.503906 -31.050781 51.25 -28.578125 49.21875 -26.671875 C 47.195312 -24.765625 44.097656 -23.8125 39.921875 -23.8125 C 36.335938 -23.8125 33.410156 -24.585938 31.140625 -26.140625 C 28.878906 -27.691406 27.75 -30.195312 27.75 -33.65625 C 27.863281 -35.207031 27.921875 -37.953125 27.921875 -41.890625 C 27.921875 -47.378906 28.066406 -51.644531 28.359375 -54.6875 C 28.660156 -57.726562 29.351562 -59.664062 30.4375 -60.5 C 32.820312 -63.488281 36.398438 -64.984375 41.171875 -64.984375 Z M 35.078125 -55.484375 C 34.128906 -54.890625 33.5625 -52.175781 33.375 -47.34375 C 33.195312 -42.507812 33.109375 -36.691406 33.109375 -29.890625 C 33.109375 -27.984375 33.703125 -26.789062 34.890625 -26.3125 C 36.085938 -25.832031 37.765625 -25.59375 39.921875 -25.59375 C 47.203125 -25.59375 50.84375 -28.097656 50.84375 -33.109375 C 51.550781 -39.554688 51.90625 -44.210938 51.90625 -47.078125 C 51.90625 -51.015625 51.457031 -54.054688 50.5625 -56.203125 C 49.664062 -58.347656 47.609375 -59.421875 44.390625 -59.421875 C 43.671875 -59.421875 42.359375 -59.300781 40.453125 -59.0625 L 40.640625 -59.0625 C 38.367188 -58.46875 36.632812 -57.394531 35.4375 -55.84375 Z M 35.078125 -55.484375 "/></g></g></g><g fill="#ffffff" fill-opacity="0.4"><g transform="translate(336.32309, 191.249372)"><g><path d="M 31.5 -128.34375 C 33.175781 -128.21875 34.28125 -127.441406 34.8125 -126.015625 C 35.351562 -124.585938 35.625 -122.203125 35.625 -118.859375 L 35.4375 -106.328125 L 35.265625 -85.203125 C 40.515625 -88.660156 46.71875 -90.390625 53.875 -90.390625 C 57.695312 -90.390625 61.394531 -89.734375 64.96875 -88.421875 C 68.550781 -87.109375 71.238281 -85.082031 73.03125 -82.34375 L 75.1875 -80.734375 C 78.28125 -78.347656 79.828125 -68.320312 79.828125 -50.65625 C 79.828125 -46 79.707031 -39.019531 79.46875 -29.71875 C 79.238281 -20.644531 79.125 -14.019531 79.125 -9.84375 C 79.125 -5.070312 79.238281 -0.179688 79.46875 4.828125 C 75.175781 5.429688 70.164062 5.734375 64.4375 5.734375 L 53.703125 5.734375 C 53.578125 4.890625 53.515625 3.691406 53.515625 2.140625 L 50.125 2.140625 C 49.757812 -1.554688 49.578125 -8.773438 49.578125 -19.515625 L 49.578125 -28.46875 C 49.578125 -34.90625 49.457031 -40.125 49.21875 -44.125 C 48.976562 -48.125 48.320312 -51.492188 47.25 -54.234375 C 46.414062 -54.597656 45.164062 -54.78125 43.5 -54.78125 C 39.914062 -54.78125 37.4375 -53.582031 36.0625 -51.1875 C 34.695312 -48.800781 34.015625 -44.207031 34.015625 -37.40625 C 34.015625 -34.1875 34.132812 -29.710938 34.375 -23.984375 C 34.601562 -18.015625 34.71875 -13.660156 34.71875 -10.921875 C 34.71875 -5.785156 34.484375 -1.3125 34.015625 2.5 L 34.015625 4.46875 C 29.835938 5.550781 26.375 6.09375 23.625 6.09375 C 21.957031 6.09375 20.644531 6.03125 19.6875 5.90625 L 15.390625 5.734375 L 13.421875 5.734375 C 11.628906 5.734375 9.898438 5.851562 8.234375 6.09375 L 8.234375 2.140625 L 4.65625 2.5 C 4.65625 -11.21875 4.59375 -22.492188 4.46875 -31.328125 L 4.296875 -85.203125 L 4.296875 -105.609375 C 4.296875 -118.253906 4.414062 -126.847656 4.65625 -131.390625 C 7.519531 -131.023438 10.203125 -130.84375 12.703125 -130.84375 C 13.660156 -130.84375 15.242188 -131.019531 17.453125 -131.375 C 19.660156 -131.738281 22.671875 -131.921875 26.484375 -131.921875 C 29.710938 -131.921875 31.382812 -131.207031 31.5 -129.78125 Z M 29.890625 -127.984375 C 29.890625 -128.941406 29.769531 -129.566406 29.53125 -129.859375 C 29.289062 -130.160156 28.632812 -130.3125 27.5625 -130.3125 C 24.21875 -130.3125 20.457031 -130.015625 16.28125 -129.421875 C 14.375 -129.179688 13.179688 -129.0625 12.703125 -129.0625 L 10.5625 -129.0625 C 9.007812 -129.0625 7.632812 -129.179688 6.4375 -129.421875 C 6.207031 -115.097656 6.09375 -101.375 6.09375 -88.25 L 6.09375 -63.546875 L 6.265625 -23.453125 C 6.378906 -17.242188 6.4375 -9.25 6.4375 0.53125 C 7.875 0.414062 9.785156 0.359375 12.171875 0.359375 L 20.765625 0.53125 C 23.265625 0.53125 25.890625 0.175781 28.640625 -0.53125 L 28.640625 -1.25 C 29.117188 -5.1875 29.359375 -9.601562 29.359375 -14.5 C 29.359375 -17.601562 29.238281 -22.140625 29 -28.109375 C 28.757812 -34.066406 28.640625 -38.597656 28.640625 -41.703125 C 28.640625 -48.867188 29.535156 -53.734375 31.328125 -56.296875 C 33.117188 -58.859375 35.984375 -60.140625 39.921875 -60.140625 C 44.210938 -60.140625 46.984375 -58.859375 48.234375 -56.296875 C 49.492188 -53.734375 50.242188 -50.867188 50.484375 -47.703125 C 50.722656 -44.535156 50.898438 -42.359375 51.015625 -41.171875 C 51.253906 -39.378906 51.375 -36.515625 51.375 -32.578125 L 51.375 -7.34375 C 51.375 -3.757812 51.492188 -1.191406 51.734375 0.359375 L 62.109375 0.53125 C 66.410156 0.53125 70.410156 0.234375 74.109375 -0.359375 C 73.867188 -4.890625 73.75 -8.648438 73.75 -11.640625 C 73.75 -15.816406 73.867188 -22.554688 74.109375 -31.859375 C 74.347656 -41.648438 74.46875 -48.8125 74.46875 -53.34375 C 74.46875 -61.570312 74.164062 -68.222656 73.5625 -73.296875 C 72.96875 -78.367188 71.894531 -81.625 70.34375 -83.0625 C 66.289062 -86.757812 60.742188 -88.609375 53.703125 -88.609375 C 49.878906 -88.609375 46.472656 -88.007812 43.484375 -86.8125 C 40.503906 -85.625 37.703125 -84.28125 35.078125 -82.78125 C 32.453125 -81.289062 30.722656 -80.304688 29.890625 -79.828125 Z M 29.890625 -127.984375 "/></g></g></g><g fill="#ffffff" fill-opacity="0.4"><g transform="translate(416.511595, 191.249372)"><g><path d="M 83.953125 -85.734375 C 84.191406 -83.828125 84.3125 -82.335938 84.3125 -81.265625 L 84.3125 -79.46875 C 84.1875 -76.25 84.125 -71.597656 84.125 -65.515625 L 84.3125 -45.46875 C 84.425781 -40.925781 84.484375 -34.179688 84.484375 -25.234375 C 84.484375 -18.191406 84.304688 -10.972656 83.953125 -3.578125 L 83.953125 -2.328125 C 83.953125 0.179688 83.769531 2.03125 83.40625 3.21875 C 83.050781 4.414062 81.976562 5.191406 80.1875 5.546875 L 77.6875 5.546875 C 76.019531 5.546875 73.867188 5.425781 71.234375 5.1875 L 66.046875 5.015625 C 65.210938 5.015625 63.960938 5.132812 62.296875 5.375 L 58.359375 5.546875 C 56.441406 5.066406 55.1875 3.875 54.59375 1.96875 C 53.039062 1.375 52.085938 0.71875 51.734375 0 C 45.523438 3.820312 39.378906 5.734375 33.296875 5.734375 C 26.972656 5.734375 21.394531 2.988281 16.5625 -2.5 C 11.726562 -7.988281 8.023438 -14.878906 5.453125 -23.171875 C 2.890625 -31.472656 1.609375 -39.617188 1.609375 -47.609375 C 1.609375 -56.679688 3.160156 -64.46875 6.265625 -70.96875 C 9.367188 -77.476562 13.632812 -82.398438 19.0625 -85.734375 C 24.488281 -89.078125 30.601562 -90.75 37.40625 -90.75 C 40.75 -90.75 43.34375 -90.507812 45.1875 -90.03125 C 47.039062 -89.5625 48.742188 -88.367188 50.296875 -86.453125 C 50.421875 -87.054688 50.539062 -88.015625 50.65625 -89.328125 C 50.78125 -90.640625 51.078125 -91.472656 51.546875 -91.828125 C 52.023438 -92.179688 52.800781 -92.359375 53.875 -92.359375 C 54.945312 -92.359375 55.929688 -92.269531 56.828125 -92.09375 C 57.722656 -91.914062 58.585938 -91.828125 59.421875 -91.828125 L 61.03125 -91.828125 C 64.132812 -91.828125 70.046875 -91.53125 78.765625 -90.9375 L 80.375 -89.328125 L 80.546875 -87.359375 L 82.34375 -87.359375 Z M 59.0625 -90.03125 L 54.234375 -90.21875 C 53.046875 -90.21875 52.332031 -89.46875 52.09375 -87.96875 C 51.851562 -86.476562 51.734375 -84.363281 51.734375 -81.625 L 51.734375 -80.734375 C 50.660156 -83.359375 49.285156 -85.265625 47.609375 -86.453125 C 45.941406 -87.648438 44.09375 -88.367188 42.0625 -88.609375 C 40.03125 -88.847656 37.164062 -88.96875 33.46875 -88.96875 C 27.863281 -88.84375 22.765625 -86.957031 18.171875 -83.3125 C 13.578125 -79.675781 9.96875 -74.753906 7.34375 -68.546875 C 4.71875 -62.347656 3.40625 -55.367188 3.40625 -47.609375 C 3.40625 -40.566406 4.359375 -33.347656 6.265625 -25.953125 C 8.171875 -18.554688 11.125 -12.320312 15.125 -7.25 C 19.125 -2.175781 23.988281 0.359375 29.71875 0.359375 C 33.769531 0.359375 37.972656 -0.625 42.328125 -2.59375 C 46.679688 -4.5625 50.351562 -7.039062 53.34375 -10.03125 C 53.34375 -9.3125 53.222656 -8.320312 52.984375 -7.0625 C 52.742188 -5.8125 52.625 -4.710938 52.625 -3.765625 C 52.625 -1.734375 53.34375 -0.421875 54.78125 0.171875 C 55.726562 0.171875 57.039062 0.0546875 58.71875 -0.171875 L 62.46875 -0.359375 L 68.375 -0.171875 C 71 0.0546875 72.910156 0.171875 74.109375 0.171875 L 76.25 0.171875 C 77.207031 -0.0546875 77.832031 -0.554688 78.125 -1.328125 C 78.425781 -2.109375 78.578125 -3.21875 78.578125 -4.65625 L 78.578125 -7.15625 C 79.054688 -14.195312 79.296875 -22.015625 79.296875 -30.609375 L 79.125 -50.296875 C 78.882812 -59.128906 78.765625 -65.8125 78.765625 -70.34375 C 78.765625 -75.957031 78.820312 -80.195312 78.9375 -83.0625 L 78.9375 -84.84375 C 78.9375 -85.800781 78.816406 -87.234375 78.578125 -89.140625 C 75.234375 -89.378906 69.382812 -89.675781 61.03125 -90.03125 Z M 43.140625 -64.984375 C 46.117188 -64.984375 48.234375 -64.710938 49.484375 -64.171875 C 50.742188 -63.628906 51.550781 -62.492188 51.90625 -60.765625 C 52.269531 -59.035156 52.453125 -56.144531 52.453125 -52.09375 L 52.453125 -42.25 C 52.453125 -37.945312 52.238281 -34.601562 51.8125 -32.21875 C 51.394531 -29.832031 50.378906 -27.984375 48.765625 -26.671875 C 47.160156 -25.359375 44.6875 -24.703125 41.34375 -24.703125 C 36.457031 -24.703125 32.582031 -26.550781 29.71875 -30.25 C 26.851562 -33.945312 25.421875 -38.539062 25.421875 -44.03125 C 25.421875 -47.96875 25.773438 -51.128906 26.484375 -53.515625 C 27.203125 -56.742188 28.992188 -59.460938 31.859375 -61.671875 C 34.722656 -63.878906 38.484375 -64.984375 43.140625 -64.984375 Z M 31.859375 -49.40625 C 31.140625 -47.019531 30.78125 -44.035156 30.78125 -40.453125 C 30.78125 -31.140625 34.300781 -26.484375 41.34375 -26.484375 C 44.332031 -26.484375 46.484375 -27.140625 47.796875 -28.453125 C 49.109375 -29.773438 49.910156 -31.566406 50.203125 -33.828125 C 50.503906 -36.097656 50.65625 -39.5625 50.65625 -44.21875 L 50.65625 -48.859375 L 50.84375 -54.234375 C 50.84375 -56.140625 50.570312 -57.507812 50.03125 -58.34375 C 49.488281 -59.1875 48.382812 -59.609375 46.71875 -59.609375 C 42.539062 -59.609375 39.195312 -58.648438 36.6875 -56.734375 C 34.1875 -54.828125 32.578125 -52.441406 31.859375 -49.578125 Z M 31.859375 -49.40625 "/></g></g></g><g fill="#ffffff" fill-opacity="0.4"><g transform="translate(501.711867, 191.249372)"><g><path d="M 35.265625 -85.03125 C 41.109375 -88.601562 47.429688 -90.390625 54.234375 -90.390625 C 58.054688 -90.390625 61.753906 -89.734375 65.328125 -88.421875 C 68.910156 -87.109375 71.597656 -85.082031 73.390625 -82.34375 L 75.53125 -80.734375 C 78.632812 -78.347656 80.1875 -68.320312 80.1875 -50.65625 C 80.1875 -46 80.066406 -39.019531 79.828125 -29.71875 C 79.585938 -20.644531 79.46875 -14.019531 79.46875 -9.84375 C 79.46875 -5.070312 79.585938 -0.179688 79.828125 4.828125 C 75.535156 5.429688 70.523438 5.734375 64.796875 5.734375 L 54.0625 5.734375 C 53.9375 4.890625 53.875 3.691406 53.875 2.140625 L 50.484375 2.140625 C 50.117188 -1.554688 49.9375 -8.773438 49.9375 -19.515625 L 49.9375 -28.46875 C 49.9375 -35.382812 49.816406 -40.75 49.578125 -44.5625 C 49.335938 -48.382812 48.679688 -51.609375 47.609375 -54.234375 C 46.660156 -54.597656 45.410156 -54.78125 43.859375 -54.78125 C 40.273438 -54.78125 37.796875 -53.582031 36.421875 -51.1875 C 35.054688 -48.800781 34.375 -44.207031 34.375 -37.40625 C 34.375 -34.1875 34.488281 -29.710938 34.71875 -23.984375 C 34.957031 -18.015625 35.078125 -13.660156 35.078125 -10.921875 C 35.078125 -5.785156 34.84375 -1.3125 34.375 2.5 L 34.375 4.46875 C 30.195312 5.550781 26.734375 6.09375 23.984375 6.09375 C 22.316406 6.09375 21.003906 6.03125 20.046875 5.90625 L 15.75 5.734375 L 13.78125 5.734375 C 11.988281 5.734375 10.257812 5.851562 8.59375 6.09375 L 8.59375 2.140625 L 5.015625 2.5 L 4.828125 -31.328125 C 4.585938 -46.359375 4.46875 -57.753906 4.46875 -65.515625 C 4.46875 -71.835938 4.585938 -80.367188 4.828125 -91.109375 C 7.691406 -90.753906 10.378906 -90.578125 12.890625 -90.578125 C 13.835938 -90.578125 15.414062 -90.753906 17.625 -91.109375 C 19.832031 -91.460938 22.847656 -91.640625 26.671875 -91.640625 C 29.890625 -91.640625 31.5625 -90.925781 31.6875 -89.5 C 31.6875 -88.78125 32.25 -88.148438 33.375 -87.609375 C 34.507812 -87.078125 35.140625 -86.515625 35.265625 -85.921875 Z M 27.75 -90.03125 C 24.40625 -90.03125 20.644531 -89.734375 16.46875 -89.140625 C 14.5625 -88.898438 13.367188 -88.78125 12.890625 -88.78125 L 10.734375 -88.78125 C 9.179688 -88.78125 7.8125 -88.898438 6.625 -89.140625 C 6.382812 -85.441406 6.265625 -80.015625 6.265625 -72.859375 L 6.265625 -61.9375 C 6.265625 -54.65625 6.382812 -44.09375 6.625 -30.25 L 6.796875 0.53125 C 8.234375 0.414062 10.144531 0.359375 12.53125 0.359375 L 21.125 0.53125 C 23.625 0.53125 26.25 0.175781 29 -0.53125 L 29 -1.25 C 29.476562 -5.1875 29.71875 -9.601562 29.71875 -14.5 C 29.71875 -17.601562 29.597656 -22.140625 29.359375 -28.109375 C 29.117188 -34.066406 29 -38.597656 29 -41.703125 C 29 -48.867188 29.894531 -53.734375 31.6875 -56.296875 C 33.476562 -58.859375 36.34375 -60.140625 40.28125 -60.140625 C 44.570312 -60.140625 47.34375 -58.859375 48.59375 -56.296875 C 49.851562 -53.734375 50.597656 -50.867188 50.828125 -47.703125 C 51.066406 -44.535156 51.25 -42.359375 51.375 -41.171875 C 51.613281 -39.378906 51.734375 -36.515625 51.734375 -32.578125 L 51.734375 -7.34375 C 51.734375 -3.757812 51.851562 -1.191406 52.09375 0.359375 L 62.46875 0.53125 C 66.769531 0.53125 70.769531 0.234375 74.46875 -0.359375 C 74.226562 -4.890625 74.109375 -8.648438 74.109375 -11.640625 C 74.109375 -15.816406 74.226562 -22.554688 74.46875 -31.859375 C 74.707031 -41.648438 74.828125 -48.8125 74.828125 -53.34375 C 74.828125 -61.570312 74.523438 -68.222656 73.921875 -73.296875 C 73.328125 -78.367188 72.253906 -81.625 70.703125 -83.0625 C 66.648438 -86.757812 61.101562 -88.609375 54.0625 -88.609375 C 50.238281 -88.609375 46.832031 -88.007812 43.84375 -86.8125 C 40.863281 -85.625 38.0625 -84.28125 35.4375 -82.78125 C 32.8125 -81.289062 31.082031 -80.304688 30.25 -79.828125 L 30.4375 -83.953125 C 30.4375 -88.003906 29.539062 -90.03125 27.75 -90.03125 Z M 27.75 -90.03125 "/></g></g></g><g fill="#ffffff" fill-opacity="0.4"><g transform="translate(582.258355, 191.249372)"><g><path d="M 35.265625 -85.03125 C 41.109375 -88.601562 47.429688 -90.390625 54.234375 -90.390625 C 58.054688 -90.390625 61.753906 -89.734375 65.328125 -88.421875 C 68.910156 -87.109375 71.597656 -85.082031 73.390625 -82.34375 L 75.53125 -80.734375 C 78.632812 -78.347656 80.1875 -68.320312 80.1875 -50.65625 C 80.1875 -46 80.066406 -39.019531 79.828125 -29.71875 C 79.585938 -20.644531 79.46875 -14.019531 79.46875 -9.84375 C 79.46875 -5.070312 79.585938 -0.179688 79.828125 4.828125 C 75.535156 5.429688 70.523438 5.734375 64.796875 5.734375 L 54.0625 5.734375 C 53.9375 4.890625 53.875 3.691406 53.875 2.140625 L 50.484375 2.140625 C 50.117188 -1.554688 49.9375 -8.773438 49.9375 -19.515625 L 49.9375 -28.46875 C 49.9375 -35.382812 49.816406 -40.75 49.578125 -44.5625 C 49.335938 -48.382812 48.679688 -51.609375 47.609375 -54.234375 C 46.660156 -54.597656 45.410156 -54.78125 43.859375 -54.78125 C 40.273438 -54.78125 37.796875 -53.582031 36.421875 -51.1875 C 35.054688 -48.800781 34.375 -44.207031 34.375 -37.40625 C 34.375 -34.1875 34.488281 -29.710938 34.71875 -23.984375 C 34.957031 -18.015625 35.078125 -13.660156 35.078125 -10.921875 C 35.078125 -5.785156 34.84375 -1.3125 34.375 2.5 L 34.375 4.46875 C 30.195312 5.550781 26.734375 6.09375 23.984375 6.09375 C 22.316406 6.09375 21.003906 6.03125 20.046875 5.90625 L 15.75 5.734375 L 13.78125 5.734375 C 11.988281 5.734375 10.257812 5.851562 8.59375 6.09375 L 8.59375 2.140625 L 5.015625 2.5 L 4.828125 -31.328125 C 4.585938 -46.359375 4.46875 -57.753906 4.46875 -65.515625 C 4.46875 -71.835938 4.585938 -80.367188 4.828125 -91.109375 C 7.691406 -90.753906 10.378906 -90.578125 12.890625 -90.578125 C 13.835938 -90.578125 15.414062 -90.753906 17.625 -91.109375 C 19.832031 -91.460938 22.847656 -91.640625 26.671875 -91.640625 C 29.890625 -91.640625 31.5625 -90.925781 31.6875 -89.5 C 31.6875 -88.78125 32.25 -88.148438 33.375 -87.609375 C 34.507812 -87.078125 35.140625 -86.515625 35.265625 -85.921875 Z M 27.75 -90.03125 C 24.40625 -90.03125 20.644531 -89.734375 16.46875 -89.140625 C 14.5625 -88.898438 13.367188 -88.78125 12.890625 -88.78125 L 10.734375 -88.78125 C 9.179688 -88.78125 7.8125 -88.898438 6.625 -89.140625 C 6.382812 -85.441406 6.265625 -80.015625 6.265625 -72.859375 L 6.265625 -61.9375 C 6.265625 -54.65625 6.382812 -44.09375 6.625 -30.25 L 6.796875 0.53125 C 8.234375 0.414062 10.144531 0.359375 12.53125 0.359375 L 21.125 0.53125 C 23.625 0.53125 26.25 0.175781 29 -0.53125 L 29 -1.25 C 29.476562 -5.1875 29.71875 -9.601562 29.71875 -14.5 C 29.71875 -17.601562 29.597656 -22.140625 29.359375 -28.109375 C 29.117188 -34.066406 29 -38.597656 29 -41.703125 C 29 -48.867188 29.894531 -53.734375 31.6875 -56.296875 C 33.476562 -58.859375 36.34375 -60.140625 40.28125 -60.140625 C 44.570312 -60.140625 47.34375 -58.859375 48.59375 -56.296875 C 49.851562 -53.734375 50.597656 -50.867188 50.828125 -47.703125 C 51.066406 -44.535156 51.25 -42.359375 51.375 -41.171875 C 51.613281 -39.378906 51.734375 -36.515625 51.734375 -32.578125 L 51.734375 -7.34375 C 51.734375 -3.757812 51.851562 -1.191406 52.09375 0.359375 L 62.46875 0.53125 C 66.769531 0.53125 70.769531 0.234375 74.46875 -0.359375 C 74.226562 -4.890625 74.109375 -8.648438 74.109375 -11.640625 C 74.109375 -15.816406 74.226562 -22.554688 74.46875 -31.859375 C 74.707031 -41.648438 74.828125 -48.8125 74.828125 -53.34375 C 74.828125 -61.570312 74.523438 -68.222656 73.921875 -73.296875 C 73.328125 -78.367188 72.253906 -81.625 70.703125 -83.0625 C 66.648438 -86.757812 61.101562 -88.609375 54.0625 -88.609375 C 50.238281 -88.609375 46.832031 -88.007812 43.84375 -86.8125 C 40.863281 -85.625 38.0625 -84.28125 35.4375 -82.78125 C 32.8125 -81.289062 31.082031 -80.304688 30.25 -79.828125 L 30.4375 -83.953125 C 30.4375 -88.003906 29.539062 -90.03125 27.75 -90.03125 Z M 27.75 -90.03125 "/></g></g></g><g fill="#ffffff" fill-opacity="0.4"><g transform="translate(662.804842, 191.249372)"><g><path d="M 83.953125 -85.734375 C 84.191406 -83.828125 84.3125 -82.335938 84.3125 -81.265625 L 84.3125 -79.46875 C 84.1875 -76.25 84.125 -71.597656 84.125 -65.515625 L 84.3125 -45.46875 C 84.425781 -40.925781 84.484375 -34.179688 84.484375 -25.234375 C 84.484375 -18.191406 84.304688 -10.972656 83.953125 -3.578125 L 83.953125 -2.328125 C 83.953125 0.179688 83.769531 2.03125 83.40625 3.21875 C 83.050781 4.414062 81.976562 5.191406 80.1875 5.546875 L 77.6875 5.546875 C 76.019531 5.546875 73.867188 5.425781 71.234375 5.1875 L 66.046875 5.015625 C 65.210938 5.015625 63.960938 5.132812 62.296875 5.375 L 58.359375 5.546875 C 56.441406 5.066406 55.1875 3.875 54.59375 1.96875 C 53.039062 1.375 52.085938 0.71875 51.734375 0 C 45.523438 3.820312 39.378906 5.734375 33.296875 5.734375 C 26.972656 5.734375 21.394531 2.988281 16.5625 -2.5 C 11.726562 -7.988281 8.023438 -14.878906 5.453125 -23.171875 C 2.890625 -31.472656 1.609375 -39.617188 1.609375 -47.609375 C 1.609375 -56.679688 3.160156 -64.46875 6.265625 -70.96875 C 9.367188 -77.476562 13.632812 -82.398438 19.0625 -85.734375 C 24.488281 -89.078125 30.601562 -90.75 37.40625 -90.75 C 40.75 -90.75 43.34375 -90.507812 45.1875 -90.03125 C 47.039062 -89.5625 48.742188 -88.367188 50.296875 -86.453125 C 50.421875 -87.054688 50.539062 -88.015625 50.65625 -89.328125 C 50.78125 -90.640625 51.078125 -91.472656 51.546875 -91.828125 C 52.023438 -92.179688 52.800781 -92.359375 53.875 -92.359375 C 54.945312 -92.359375 55.929688 -92.269531 56.828125 -92.09375 C 57.722656 -91.914062 58.585938 -91.828125 59.421875 -91.828125 L 61.03125 -91.828125 C 64.132812 -91.828125 70.046875 -91.53125 78.765625 -90.9375 L 80.375 -89.328125 L 80.546875 -87.359375 L 82.34375 -87.359375 Z M 59.0625 -90.03125 L 54.234375 -90.21875 C 53.046875 -90.21875 52.332031 -89.46875 52.09375 -87.96875 C 51.851562 -86.476562 51.734375 -84.363281 51.734375 -81.625 L 51.734375 -80.734375 C 50.660156 -83.359375 49.285156 -85.265625 47.609375 -86.453125 C 45.941406 -87.648438 44.09375 -88.367188 42.0625 -88.609375 C 40.03125 -88.847656 37.164062 -88.96875 33.46875 -88.96875 C 27.863281 -88.84375 22.765625 -86.957031 18.171875 -83.3125 C 13.578125 -79.675781 9.96875 -74.753906 7.34375 -68.546875 C 4.71875 -62.347656 3.40625 -55.367188 3.40625 -47.609375 C 3.40625 -40.566406 4.359375 -33.347656 6.265625 -25.953125 C 8.171875 -18.554688 11.125 -12.320312 15.125 -7.25 C 19.125 -2.175781 23.988281 0.359375 29.71875 0.359375 C 33.769531 0.359375 37.972656 -0.625 42.328125 -2.59375 C 46.679688 -4.5625 50.351562 -7.039062 53.34375 -10.03125 C 53.34375 -9.3125 53.222656 -8.320312 52.984375 -7.0625 C 52.742188 -5.8125 52.625 -4.710938 52.625 -3.765625 C 52.625 -1.734375 53.34375 -0.421875 54.78125 0.171875 C 55.726562 0.171875 57.039062 0.0546875 58.71875 -0.171875 L 62.46875 -0.359375 L 68.375 -0.171875 C 71 0.0546875 72.910156 0.171875 74.109375 0.171875 L 76.25 0.171875 C 77.207031 -0.0546875 77.832031 -0.554688 78.125 -1.328125 C 78.425781 -2.109375 78.578125 -3.21875 78.578125 -4.65625 L 78.578125 -7.15625 C 79.054688 -14.195312 79.296875 -22.015625 79.296875 -30.609375 L 79.125 -50.296875 C 78.882812 -59.128906 78.765625 -65.8125 78.765625 -70.34375 C 78.765625 -75.957031 78.820312 -80.195312 78.9375 -83.0625 L 78.9375 -84.84375 C 78.9375 -85.800781 78.816406 -87.234375 78.578125 -89.140625 C 75.234375 -89.378906 69.382812 -89.675781 61.03125 -90.03125 Z M 43.140625 -64.984375 C 46.117188 -64.984375 48.234375 -64.710938 49.484375 -64.171875 C 50.742188 -63.628906 51.550781 -62.492188 51.90625 -60.765625 C 52.269531 -59.035156 52.453125 -56.144531 52.453125 -52.09375 L 52.453125 -42.25 C 52.453125 -37.945312 52.238281 -34.601562 51.8125 -32.21875 C 51.394531 -29.832031 50.378906 -27.984375 48.765625 -26.671875 C 47.160156 -25.359375 44.6875 -24.703125 41.34375 -24.703125 C 36.457031 -24.703125 32.582031 -26.550781 29.71875 -30.25 C 26.851562 -33.945312 25.421875 -38.539062 25.421875 -44.03125 C 25.421875 -47.96875 25.773438 -51.128906 26.484375 -53.515625 C 27.203125 -56.742188 28.992188 -59.460938 31.859375 -61.671875 C 34.722656 -63.878906 38.484375 -64.984375 43.140625 -64.984375 Z M 31.859375 -49.40625 C 31.140625 -47.019531 30.78125 -44.035156 30.78125 -40.453125 C 30.78125 -31.140625 34.300781 -26.484375 41.34375 -26.484375 C 44.332031 -26.484375 46.484375 -27.140625 47.796875 -28.453125 C 49.109375 -29.773438 49.910156 -31.566406 50.203125 -33.828125 C 50.503906 -36.097656 50.65625 -39.5625 50.65625 -44.21875 L 50.65625 -48.859375 L 50.84375 -54.234375 C 50.84375 -56.140625 50.570312 -57.507812 50.03125 -58.34375 C 49.488281 -59.1875 48.382812 -59.609375 46.71875 -59.609375 C 42.539062 -59.609375 39.195312 -58.648438 36.6875 -56.734375 C 34.1875 -54.828125 32.578125 -52.441406 31.859375 -49.578125 Z M 31.859375 -49.40625 "/></g></g></g><g fill="#ff26b9" fill-opacity="1"><g transform="translate(162.621097, 187.792196)"><g><path d="M 77.859375 -125.65625 L 81.4375 -125.65625 L 81.4375 -114.921875 C 81.4375 -109.785156 81.554688 -101.847656 81.796875 -91.109375 C 82.160156 -82.878906 82.34375 -74.347656 82.34375 -65.515625 C 82.34375 -61.578125 82.28125 -58.65625 82.15625 -56.75 L 81.984375 -47.96875 C 81.742188 -39.019531 81.207031 -31.59375 80.375 -25.6875 C 79.539062 -19.78125 77.570312 -14.226562 74.46875 -9.03125 C 71.363281 -3.84375 66.585938 -0.0546875 60.140625 2.328125 L 60.328125 2.328125 C 54.835938 5.304688 47.851562 6.796875 39.375 6.796875 C 24.820312 6.796875 14.410156 1.726562 8.140625 -8.40625 C 1.878906 -18.550781 -1.25 -31.144531 -1.25 -46.1875 L -1.078125 -52.984375 C 0.710938 -53.578125 2.769531 -53.929688 5.09375 -54.046875 C 7.425781 -54.171875 9.726562 -54.234375 12 -54.234375 C 19.394531 -54.234375 25.476562 -53.695312 30.25 -52.625 L 30.25 -49.578125 L 33.828125 -49.046875 L 33.828125 -46.546875 C 33.828125 -45.941406 33.945312 -44.144531 34.1875 -41.15625 C 34.425781 -38.175781 35.113281 -35.789062 36.25 -34 C 37.382812 -32.21875 38.960938 -31.328125 40.984375 -31.328125 C 43.253906 -31.328125 44.957031 -32.367188 46.09375 -34.453125 C 47.226562 -36.546875 47.972656 -39.144531 48.328125 -42.25 C 47.847656 -56.207031 47.609375 -73.09375 47.609375 -92.90625 C 47.492188 -94.332031 47.4375 -96.539062 47.4375 -99.53125 C 47.4375 -102.382812 47.554688 -106.675781 47.796875 -112.40625 C 48.035156 -118.375 48.15625 -122.851562 48.15625 -125.84375 L 48.15625 -128.875 L 77.859375 -129.234375 Z M 49.9375 -125.84375 C 49.582031 -114.738281 49.40625 -103.757812 49.40625 -92.90625 C 49.40625 -73.8125 49.644531 -56.925781 50.125 -42.25 C 49.757812 -38.664062 48.832031 -35.648438 47.34375 -33.203125 C 45.851562 -30.753906 43.734375 -29.53125 40.984375 -29.53125 C 36.453125 -29.53125 33.320312 -31.5 31.59375 -35.4375 C 29.863281 -39.375 28.820312 -44.269531 28.46875 -50.125 L 28.46875 -51.1875 C 22.851562 -52.03125 17.363281 -52.453125 12 -52.453125 C 7.695312 -52.453125 3.9375 -52.148438 0.71875 -51.546875 C 0.59375 -50.234375 0.53125 -48.382812 0.53125 -46 C 0.53125 -35.144531 2.203125 -25.359375 5.546875 -16.640625 C 8.890625 -7.929688 14.554688 -2.382812 22.546875 0 C 27.328125 0.957031 31.742188 1.4375 35.796875 1.4375 C 43.429688 1.4375 50.175781 0.00390625 56.03125 -2.859375 C 62.113281 -5.128906 66.613281 -8.769531 69.53125 -13.78125 C 72.457031 -18.789062 74.304688 -24.160156 75.078125 -29.890625 C 75.859375 -35.617188 76.367188 -42.835938 76.609375 -51.546875 C 76.609375 -54.890625 76.671875 -57.335938 76.796875 -58.890625 C 76.910156 -60.921875 76.9375 -62.679688 76.875 -64.171875 C 76.820312 -65.660156 76.796875 -66.941406 76.796875 -68.015625 C 76.796875 -76.734375 76.613281 -85.265625 76.25 -93.609375 C 76.007812 -104.828125 75.890625 -113.125 75.890625 -118.5 C 75.890625 -122.4375 75.953125 -125.421875 76.078125 -127.453125 L 49.9375 -127.09375 Z M 49.9375 -125.84375 "/></g></g></g><g fill="#ff26b9" fill-opacity="1"><g transform="translate(245.494488, 187.792196)"><g><path d="M 6.4375 -82.34375 C 8.226562 -86.15625 11.78125 -89.015625 17.09375 -90.921875 C 22.40625 -92.835938 28.398438 -93.796875 35.078125 -93.796875 C 36.035156 -93.671875 38.242188 -93.609375 41.703125 -93.609375 L 46 -93.796875 C 50.539062 -93.796875 54.957031 -93.078125 59.25 -91.640625 C 63.539062 -90.210938 67.117188 -88.128906 69.984375 -85.390625 L 69.8125 -85.390625 C 70.164062 -84.910156 70.703125 -84.28125 71.421875 -83.5 C 72.140625 -82.726562 72.796875 -82.160156 73.390625 -81.796875 L 73.21875 -81.984375 C 76.4375 -79.835938 78.609375 -75.539062 79.734375 -69.09375 C 80.867188 -62.644531 81.4375 -54.648438 81.4375 -45.109375 C 81.4375 -36.640625 80.898438 -27.867188 79.828125 -18.796875 C 78.753906 -9.722656 77.265625 -4.113281 75.359375 -1.96875 C 72.847656 1.613281 69.445312 4.0625 65.15625 5.375 C 60.863281 6.6875 55.851562 7.34375 50.125 7.34375 C 44.03125 7.34375 39.101562 7.160156 35.34375 6.796875 C 31.59375 6.441406 27.894531 5.457031 24.25 3.84375 C 20.613281 2.238281 17.125 -0.296875 13.78125 -3.765625 L 12.171875 -5.375 C 8.472656 -8.832031 5.96875 -13.273438 4.65625 -18.703125 C 3.34375 -24.128906 2.6875 -30.484375 2.6875 -37.765625 L 2.6875 -44.21875 L 2.859375 -50.296875 C 2.859375 -51.734375 2.796875 -53.109375 2.671875 -54.421875 C 2.554688 -55.734375 2.5 -56.925781 2.5 -58 C 2.5 -63.125 2.617188 -67 2.859375 -69.625 C 3.097656 -72.25 3.992188 -75.414062 5.546875 -79.125 L 5.375 -79.125 C 5.488281 -79.832031 5.632812 -80.546875 5.8125 -81.265625 C 6 -81.984375 6.207031 -82.460938 6.4375 -82.703125 L 6.4375 -82.515625 L 6.265625 -81.984375 Z M 4.46875 -50.65625 L 4.46875 -37.40625 C 4.46875 -26.90625 6.226562 -18.222656 9.75 -11.359375 C 13.269531 -4.503906 19.625 -0.300781 28.8125 1.25 L 37.234375 1.4375 C 41.285156 1.675781 44.445312 1.796875 46.71875 1.796875 C 52.320312 1.796875 57.09375 1.195312 61.03125 0 C 64.976562 -1.195312 68.082031 -3.40625 70.34375 -6.625 C 72.375 -8.65625 73.71875 -13.1875 74.375 -20.21875 C 75.03125 -27.257812 75.597656 -36.75 76.078125 -48.6875 C 76.078125 -49.757812 75.957031 -53.609375 75.71875 -60.234375 C 75.476562 -66.859375 74.789062 -72.164062 73.65625 -76.15625 C 72.519531 -80.15625 70.878906 -82.8125 68.734375 -84.125 C 63.367188 -89.375 55.550781 -92 45.28125 -92 L 38.484375 -91.828125 C 36.929688 -91.828125 35.738281 -91.882812 34.90625 -92 C 28.820312 -92 23.210938 -91.101562 18.078125 -89.3125 C 12.941406 -87.53125 9.601562 -84.96875 8.0625 -81.625 C 6.75 -76.96875 5.789062 -72.847656 5.1875 -69.265625 C 4.59375 -65.691406 4.296875 -61.992188 4.296875 -58.171875 Z M 41.171875 -64.984375 C 49.523438 -64.984375 53.703125 -58.773438 53.703125 -46.359375 C 53.703125 -41.222656 53.460938 -37.132812 52.984375 -34.09375 C 52.503906 -31.050781 51.25 -28.578125 49.21875 -26.671875 C 47.195312 -24.765625 44.097656 -23.8125 39.921875 -23.8125 C 36.335938 -23.8125 33.410156 -24.585938 31.140625 -26.140625 C 28.878906 -27.691406 27.75 -30.195312 27.75 -33.65625 C 27.863281 -35.207031 27.921875 -37.953125 27.921875 -41.890625 C 27.921875 -47.378906 28.066406 -51.644531 28.359375 -54.6875 C 28.660156 -57.726562 29.351562 -59.664062 30.4375 -60.5 C 32.820312 -63.488281 36.398438 -64.984375 41.171875 -64.984375 Z M 35.078125 -55.484375 C 34.128906 -54.890625 33.5625 -52.175781 33.375 -47.34375 C 33.195312 -42.507812 33.109375 -36.691406 33.109375 -29.890625 C 33.109375 -27.984375 33.703125 -26.789062 34.890625 -26.3125 C 36.085938 -25.832031 37.765625 -25.59375 39.921875 -25.59375 C 47.203125 -25.59375 50.84375 -28.097656 50.84375 -33.109375 C 51.550781 -39.554688 51.90625 -44.210938 51.90625 -47.078125 C 51.90625 -51.015625 51.457031 -54.054688 50.5625 -56.203125 C 49.664062 -58.347656 47.609375 -59.421875 44.390625 -59.421875 C 43.671875 -59.421875 42.359375 -59.300781 40.453125 -59.0625 L 40.640625 -59.0625 C 38.367188 -58.46875 36.632812 -57.394531 35.4375 -55.84375 Z M 35.078125 -55.484375 "/></g></g></g><g fill="#ff26b9" fill-opacity="1"><g transform="translate(325.682993, 187.792196)"><g><path d="M 31.5 -128.34375 C 33.175781 -128.21875 34.28125 -127.441406 34.8125 -126.015625 C 35.351562 -124.585938 35.625 -122.203125 35.625 -118.859375 L 35.4375 -106.328125 L 35.265625 -85.203125 C 40.515625 -88.660156 46.71875 -90.390625 53.875 -90.390625 C 57.695312 -90.390625 61.394531 -89.734375 64.96875 -88.421875 C 68.550781 -87.109375 71.238281 -85.082031 73.03125 -82.34375 L 75.1875 -80.734375 C 78.28125 -78.347656 79.828125 -68.320312 79.828125 -50.65625 C 79.828125 -46 79.707031 -39.019531 79.46875 -29.71875 C 79.238281 -20.644531 79.125 -14.019531 79.125 -9.84375 C 79.125 -5.070312 79.238281 -0.179688 79.46875 4.828125 C 75.175781 5.429688 70.164062 5.734375 64.4375 5.734375 L 53.703125 5.734375 C 53.578125 4.890625 53.515625 3.691406 53.515625 2.140625 L 50.125 2.140625 C 49.757812 -1.554688 49.578125 -8.773438 49.578125 -19.515625 L 49.578125 -28.46875 C 49.578125 -34.90625 49.457031 -40.125 49.21875 -44.125 C 48.976562 -48.125 48.320312 -51.492188 47.25 -54.234375 C 46.414062 -54.597656 45.164062 -54.78125 43.5 -54.78125 C 39.914062 -54.78125 37.4375 -53.582031 36.0625 -51.1875 C 34.695312 -48.800781 34.015625 -44.207031 34.015625 -37.40625 C 34.015625 -34.1875 34.132812 -29.710938 34.375 -23.984375 C 34.601562 -18.015625 34.71875 -13.660156 34.71875 -10.921875 C 34.71875 -5.785156 34.484375 -1.3125 34.015625 2.5 L 34.015625 4.46875 C 29.835938 5.550781 26.375 6.09375 23.625 6.09375 C 21.957031 6.09375 20.644531 6.03125 19.6875 5.90625 L 15.390625 5.734375 L 13.421875 5.734375 C 11.628906 5.734375 9.898438 5.851562 8.234375 6.09375 L 8.234375 2.140625 L 4.65625 2.5 C 4.65625 -11.21875 4.59375 -22.492188 4.46875 -31.328125 L 4.296875 -85.203125 L 4.296875 -105.609375 C 4.296875 -118.253906 4.414062 -126.847656 4.65625 -131.390625 C 7.519531 -131.023438 10.203125 -130.84375 12.703125 -130.84375 C 13.660156 -130.84375 15.242188 -131.019531 17.453125 -131.375 C 19.660156 -131.738281 22.671875 -131.921875 26.484375 -131.921875 C 29.710938 -131.921875 31.382812 -131.207031 31.5 -129.78125 Z M 29.890625 -127.984375 C 29.890625 -128.941406 29.769531 -129.566406 29.53125 -129.859375 C 29.289062 -130.160156 28.632812 -130.3125 27.5625 -130.3125 C 24.21875 -130.3125 20.457031 -130.015625 16.28125 -129.421875 C 14.375 -129.179688 13.179688 -129.0625 12.703125 -129.0625 L 10.5625 -129.0625 C 9.007812 -129.0625 7.632812 -129.179688 6.4375 -129.421875 C 6.207031 -115.097656 6.09375 -101.375 6.09375 -88.25 L 6.09375 -63.546875 L 6.265625 -23.453125 C 6.378906 -17.242188 6.4375 -9.25 6.4375 0.53125 C 7.875 0.414062 9.785156 0.359375 12.171875 0.359375 L 20.765625 0.53125 C 23.265625 0.53125 25.890625 0.175781 28.640625 -0.53125 L 28.640625 -1.25 C 29.117188 -5.1875 29.359375 -9.601562 29.359375 -14.5 C 29.359375 -17.601562 29.238281 -22.140625 29 -28.109375 C 28.757812 -34.066406 28.640625 -38.597656 28.640625 -41.703125 C 28.640625 -48.867188 29.535156 -53.734375 31.328125 -56.296875 C 33.117188 -58.859375 35.984375 -60.140625 39.921875 -60.140625 C 44.210938 -60.140625 46.984375 -58.859375 48.234375 -56.296875 C 49.492188 -53.734375 50.242188 -50.867188 50.484375 -47.703125 C 50.722656 -44.535156 50.898438 -42.359375 51.015625 -41.171875 C 51.253906 -39.378906 51.375 -36.515625 51.375 -32.578125 L 51.375 -7.34375 C 51.375 -3.757812 51.492188 -1.191406 51.734375 0.359375 L 62.109375 0.53125 C 66.410156 0.53125 70.410156 0.234375 74.109375 -0.359375 C 73.867188 -4.890625 73.75 -8.648438 73.75 -11.640625 C 73.75 -15.816406 73.867188 -22.554688 74.109375 -31.859375 C 74.347656 -41.648438 74.46875 -48.8125 74.46875 -53.34375 C 74.46875 -61.570312 74.164062 -68.222656 73.5625 -73.296875 C 72.96875 -78.367188 71.894531 -81.625 70.34375 -83.0625 C 66.289062 -86.757812 60.742188 -88.609375 53.703125 -88.609375 C 49.878906 -88.609375 46.472656 -88.007812 43.484375 -86.8125 C 40.503906 -85.625 37.703125 -84.28125 35.078125 -82.78125 C 32.453125 -81.289062 30.722656 -80.304688 29.890625 -79.828125 Z M 29.890625 -127.984375 "/></g></g></g><g fill="#ff26b9" fill-opacity="1"><g transform="translate(405.871498, 187.792196)"><g><path d="M 83.953125 -85.734375 C 84.191406 -83.828125 84.3125 -82.335938 84.3125 -81.265625 L 84.3125 -79.46875 C 84.1875 -76.25 84.125 -71.597656 84.125 -65.515625 L 84.3125 -45.46875 C 84.425781 -40.925781 84.484375 -34.179688 84.484375 -25.234375 C 84.484375 -18.191406 84.304688 -10.972656 83.953125 -3.578125 L 83.953125 -2.328125 C 83.953125 0.179688 83.769531 2.03125 83.40625 3.21875 C 83.050781 4.414062 81.976562 5.191406 80.1875 5.546875 L 77.6875 5.546875 C 76.019531 5.546875 73.867188 5.425781 71.234375 5.1875 L 66.046875 5.015625 C 65.210938 5.015625 63.960938 5.132812 62.296875 5.375 L 58.359375 5.546875 C 56.441406 5.066406 55.1875 3.875 54.59375 1.96875 C 53.039062 1.375 52.085938 0.71875 51.734375 0 C 45.523438 3.820312 39.378906 5.734375 33.296875 5.734375 C 26.972656 5.734375 21.394531 2.988281 16.5625 -2.5 C 11.726562 -7.988281 8.023438 -14.878906 5.453125 -23.171875 C 2.890625 -31.472656 1.609375 -39.617188 1.609375 -47.609375 C 1.609375 -56.679688 3.160156 -64.46875 6.265625 -70.96875 C 9.367188 -77.476562 13.632812 -82.398438 19.0625 -85.734375 C 24.488281 -89.078125 30.601562 -90.75 37.40625 -90.75 C 40.75 -90.75 43.34375 -90.507812 45.1875 -90.03125 C 47.039062 -89.5625 48.742188 -88.367188 50.296875 -86.453125 C 50.421875 -87.054688 50.539062 -88.015625 50.65625 -89.328125 C 50.78125 -90.640625 51.078125 -91.472656 51.546875 -91.828125 C 52.023438 -92.179688 52.800781 -92.359375 53.875 -92.359375 C 54.945312 -92.359375 55.929688 -92.269531 56.828125 -92.09375 C 57.722656 -91.914062 58.585938 -91.828125 59.421875 -91.828125 L 61.03125 -91.828125 C 64.132812 -91.828125 70.046875 -91.53125 78.765625 -90.9375 L 80.375 -89.328125 L 80.546875 -87.359375 L 82.34375 -87.359375 Z M 59.0625 -90.03125 L 54.234375 -90.21875 C 53.046875 -90.21875 52.332031 -89.46875 52.09375 -87.96875 C 51.851562 -86.476562 51.734375 -84.363281 51.734375 -81.625 L 51.734375 -80.734375 C 50.660156 -83.359375 49.285156 -85.265625 47.609375 -86.453125 C 45.941406 -87.648438 44.09375 -88.367188 42.0625 -88.609375 C 40.03125 -88.847656 37.164062 -88.96875 33.46875 -88.96875 C 27.863281 -88.84375 22.765625 -86.957031 18.171875 -83.3125 C 13.578125 -79.675781 9.96875 -74.753906 7.34375 -68.546875 C 4.71875 -62.347656 3.40625 -55.367188 3.40625 -47.609375 C 3.40625 -40.566406 4.359375 -33.347656 6.265625 -25.953125 C 8.171875 -18.554688 11.125 -12.320312 15.125 -7.25 C 19.125 -2.175781 23.988281 0.359375 29.71875 0.359375 C 33.769531 0.359375 37.972656 -0.625 42.328125 -2.59375 C 46.679688 -4.5625 50.351562 -7.039062 53.34375 -10.03125 C 53.34375 -9.3125 53.222656 -8.320312 52.984375 -7.0625 C 52.742188 -5.8125 52.625 -4.710938 52.625 -3.765625 C 52.625 -1.734375 53.34375 -0.421875 54.78125 0.171875 C 55.726562 0.171875 57.039062 0.0546875 58.71875 -0.171875 L 62.46875 -0.359375 L 68.375 -0.171875 C 71 0.0546875 72.910156 0.171875 74.109375 0.171875 L 76.25 0.171875 C 77.207031 -0.0546875 77.832031 -0.554688 78.125 -1.328125 C 78.425781 -2.109375 78.578125 -3.21875 78.578125 -4.65625 L 78.578125 -7.15625 C 79.054688 -14.195312 79.296875 -22.015625 79.296875 -30.609375 L 79.125 -50.296875 C 78.882812 -59.128906 78.765625 -65.8125 78.765625 -70.34375 C 78.765625 -75.957031 78.820312 -80.195312 78.9375 -83.0625 L 78.9375 -84.84375 C 78.9375 -85.800781 78.816406 -87.234375 78.578125 -89.140625 C 75.234375 -89.378906 69.382812 -89.675781 61.03125 -90.03125 Z M 43.140625 -64.984375 C 46.117188 -64.984375 48.234375 -64.710938 49.484375 -64.171875 C 50.742188 -63.628906 51.550781 -62.492188 51.90625 -60.765625 C 52.269531 -59.035156 52.453125 -56.144531 52.453125 -52.09375 L 52.453125 -42.25 C 52.453125 -37.945312 52.238281 -34.601562 51.8125 -32.21875 C 51.394531 -29.832031 50.378906 -27.984375 48.765625 -26.671875 C 47.160156 -25.359375 44.6875 -24.703125 41.34375 -24.703125 C 36.457031 -24.703125 32.582031 -26.550781 29.71875 -30.25 C 26.851562 -33.945312 25.421875 -38.539062 25.421875 -44.03125 C 25.421875 -47.96875 25.773438 -51.128906 26.484375 -53.515625 C 27.203125 -56.742188 28.992188 -59.460938 31.859375 -61.671875 C 34.722656 -63.878906 38.484375 -64.984375 43.140625 -64.984375 Z M 31.859375 -49.40625 C 31.140625 -47.019531 30.78125 -44.035156 30.78125 -40.453125 C 30.78125 -31.140625 34.300781 -26.484375 41.34375 -26.484375 C 44.332031 -26.484375 46.484375 -27.140625 47.796875 -28.453125 C 49.109375 -29.773438 49.910156 -31.566406 50.203125 -33.828125 C 50.503906 -36.097656 50.65625 -39.5625 50.65625 -44.21875 L 50.65625 -48.859375 L 50.84375 -54.234375 C 50.84375 -56.140625 50.570312 -57.507812 50.03125 -58.34375 C 49.488281 -59.1875 48.382812 -59.609375 46.71875 -59.609375 C 42.539062 -59.609375 39.195312 -58.648438 36.6875 -56.734375 C 34.1875 -54.828125 32.578125 -52.441406 31.859375 -49.578125 Z M 31.859375 -49.40625 "/></g></g></g><g fill="#ff26b9" fill-opacity="1"><g transform="translate(491.071771, 187.792196)"><g><path d="M 35.265625 -85.03125 C 41.109375 -88.601562 47.429688 -90.390625 54.234375 -90.390625 C 58.054688 -90.390625 61.753906 -89.734375 65.328125 -88.421875 C 68.910156 -87.109375 71.597656 -85.082031 73.390625 -82.34375 L 75.53125 -80.734375 C 78.632812 -78.347656 80.1875 -68.320312 80.1875 -50.65625 C 80.1875 -46 80.066406 -39.019531 79.828125 -29.71875 C 79.585938 -20.644531 79.46875 -14.019531 79.46875 -9.84375 C 79.46875 -5.070312 79.585938 -0.179688 79.828125 4.828125 C 75.535156 5.429688 70.523438 5.734375 64.796875 5.734375 L 54.0625 5.734375 C 53.9375 4.890625 53.875 3.691406 53.875 2.140625 L 50.484375 2.140625 C 50.117188 -1.554688 49.9375 -8.773438 49.9375 -19.515625 L 49.9375 -28.46875 C 49.9375 -35.382812 49.816406 -40.75 49.578125 -44.5625 C 49.335938 -48.382812 48.679688 -51.609375 47.609375 -54.234375 C 46.660156 -54.597656 45.410156 -54.78125 43.859375 -54.78125 C 40.273438 -54.78125 37.796875 -53.582031 36.421875 -51.1875 C 35.054688 -48.800781 34.375 -44.207031 34.375 -37.40625 C 34.375 -34.1875 34.488281 -29.710938 34.71875 -23.984375 C 34.957031 -18.015625 35.078125 -13.660156 35.078125 -10.921875 C 35.078125 -5.785156 34.84375 -1.3125 34.375 2.5 L 34.375 4.46875 C 30.195312 5.550781 26.734375 6.09375 23.984375 6.09375 C 22.316406 6.09375 21.003906 6.03125 20.046875 5.90625 L 15.75 5.734375 L 13.78125 5.734375 C 11.988281 5.734375 10.257812 5.851562 8.59375 6.09375 L 8.59375 2.140625 L 5.015625 2.5 L 4.828125 -31.328125 C 4.585938 -46.359375 4.46875 -57.753906 4.46875 -65.515625 C 4.46875 -71.835938 4.585938 -80.367188 4.828125 -91.109375 C 7.691406 -90.753906 10.378906 -90.578125 12.890625 -90.578125 C 13.835938 -90.578125 15.414062 -90.753906 17.625 -91.109375 C 19.832031 -91.460938 22.847656 -91.640625 26.671875 -91.640625 C 29.890625 -91.640625 31.5625 -90.925781 31.6875 -89.5 C 31.6875 -88.78125 32.25 -88.148438 33.375 -87.609375 C 34.507812 -87.078125 35.140625 -86.515625 35.265625 -85.921875 Z M 27.75 -90.03125 C 24.40625 -90.03125 20.644531 -89.734375 16.46875 -89.140625 C 14.5625 -88.898438 13.367188 -88.78125 12.890625 -88.78125 L 10.734375 -88.78125 C 9.179688 -88.78125 7.8125 -88.898438 6.625 -89.140625 C 6.382812 -85.441406 6.265625 -80.015625 6.265625 -72.859375 L 6.265625 -61.9375 C 6.265625 -54.65625 6.382812 -44.09375 6.625 -30.25 L 6.796875 0.53125 C 8.234375 0.414062 10.144531 0.359375 12.53125 0.359375 L 21.125 0.53125 C 23.625 0.53125 26.25 0.175781 29 -0.53125 L 29 -1.25 C 29.476562 -5.1875 29.71875 -9.601562 29.71875 -14.5 C 29.71875 -17.601562 29.597656 -22.140625 29.359375 -28.109375 C 29.117188 -34.066406 29 -38.597656 29 -41.703125 C 29 -48.867188 29.894531 -53.734375 31.6875 -56.296875 C 33.476562 -58.859375 36.34375 -60.140625 40.28125 -60.140625 C 44.570312 -60.140625 47.34375 -58.859375 48.59375 -56.296875 C 49.851562 -53.734375 50.597656 -50.867188 50.828125 -47.703125 C 51.066406 -44.535156 51.25 -42.359375 51.375 -41.171875 C 51.613281 -39.378906 51.734375 -36.515625 51.734375 -32.578125 L 51.734375 -7.34375 C 51.734375 -3.757812 51.851562 -1.191406 52.09375 0.359375 L 62.46875 0.53125 C 66.769531 0.53125 70.769531 0.234375 74.46875 -0.359375 C 74.226562 -4.890625 74.109375 -8.648438 74.109375 -11.640625 C 74.109375 -15.816406 74.226562 -22.554688 74.46875 -31.859375 C 74.707031 -41.648438 74.828125 -48.8125 74.828125 -53.34375 C 74.828125 -61.570312 74.523438 -68.222656 73.921875 -73.296875 C 73.328125 -78.367188 72.253906 -81.625 70.703125 -83.0625 C 66.648438 -86.757812 61.101562 -88.609375 54.0625 -88.609375 C 50.238281 -88.609375 46.832031 -88.007812 43.84375 -86.8125 C 40.863281 -85.625 38.0625 -84.28125 35.4375 -82.78125 C 32.8125 -81.289062 31.082031 -80.304688 30.25 -79.828125 L 30.4375 -83.953125 C 30.4375 -88.003906 29.539062 -90.03125 27.75 -90.03125 Z M 27.75 -90.03125 "/></g></g></g><g fill="#ff26b9" fill-opacity="1"><g transform="translate(571.618258, 187.792196)"><g><path d="M 35.265625 -85.03125 C 41.109375 -88.601562 47.429688 -90.390625 54.234375 -90.390625 C 58.054688 -90.390625 61.753906 -89.734375 65.328125 -88.421875 C 68.910156 -87.109375 71.597656 -85.082031 73.390625 -82.34375 L 75.53125 -80.734375 C 78.632812 -78.347656 80.1875 -68.320312 80.1875 -50.65625 C 80.1875 -46 80.066406 -39.019531 79.828125 -29.71875 C 79.585938 -20.644531 79.46875 -14.019531 79.46875 -9.84375 C 79.46875 -5.070312 79.585938 -0.179688 79.828125 4.828125 C 75.535156 5.429688 70.523438 5.734375 64.796875 5.734375 L 54.0625 5.734375 C 53.9375 4.890625 53.875 3.691406 53.875 2.140625 L 50.484375 2.140625 C 50.117188 -1.554688 49.9375 -8.773438 49.9375 -19.515625 L 49.9375 -28.46875 C 49.9375 -35.382812 49.816406 -40.75 49.578125 -44.5625 C 49.335938 -48.382812 48.679688 -51.609375 47.609375 -54.234375 C 46.660156 -54.597656 45.410156 -54.78125 43.859375 -54.78125 C 40.273438 -54.78125 37.796875 -53.582031 36.421875 -51.1875 C 35.054688 -48.800781 34.375 -44.207031 34.375 -37.40625 C 34.375 -34.1875 34.488281 -29.710938 34.71875 -23.984375 C 34.957031 -18.015625 35.078125 -13.660156 35.078125 -10.921875 C 35.078125 -5.785156 34.84375 -1.3125 34.375 2.5 L 34.375 4.46875 C 30.195312 5.550781 26.734375 6.09375 23.984375 6.09375 C 22.316406 6.09375 21.003906 6.03125 20.046875 5.90625 L 15.75 5.734375 L 13.78125 5.734375 C 11.988281 5.734375 10.257812 5.851562 8.59375 6.09375 L 8.59375 2.140625 L 5.015625 2.5 L 4.828125 -31.328125 C 4.585938 -46.359375 4.46875 -57.753906 4.46875 -65.515625 C 4.46875 -71.835938 4.585938 -80.367188 4.828125 -91.109375 C 7.691406 -90.753906 10.378906 -90.578125 12.890625 -90.578125 C 13.835938 -90.578125 15.414062 -90.753906 17.625 -91.109375 C 19.832031 -91.460938 22.847656 -91.640625 26.671875 -91.640625 C 29.890625 -91.640625 31.5625 -90.925781 31.6875 -89.5 C 31.6875 -88.78125 32.25 -88.148438 33.375 -87.609375 C 34.507812 -87.078125 35.140625 -86.515625 35.265625 -85.921875 Z M 27.75 -90.03125 C 24.40625 -90.03125 20.644531 -89.734375 16.46875 -89.140625 C 14.5625 -88.898438 13.367188 -88.78125 12.890625 -88.78125 L 10.734375 -88.78125 C 9.179688 -88.78125 7.8125 -88.898438 6.625 -89.140625 C 6.382812 -85.441406 6.265625 -80.015625 6.265625 -72.859375 L 6.265625 -61.9375 C 6.265625 -54.65625 6.382812 -44.09375 6.625 -30.25 L 6.796875 0.53125 C 8.234375 0.414062 10.144531 0.359375 12.53125 0.359375 L 21.125 0.53125 C 23.625 0.53125 26.25 0.175781 29 -0.53125 L 29 -1.25 C 29.476562 -5.1875 29.71875 -9.601562 29.71875 -14.5 C 29.71875 -17.601562 29.597656 -22.140625 29.359375 -28.109375 C 29.117188 -34.066406 29 -38.597656 29 -41.703125 C 29 -48.867188 29.894531 -53.734375 31.6875 -56.296875 C 33.476562 -58.859375 36.34375 -60.140625 40.28125 -60.140625 C 44.570312 -60.140625 47.34375 -58.859375 48.59375 -56.296875 C 49.851562 -53.734375 50.597656 -50.867188 50.828125 -47.703125 C 51.066406 -44.535156 51.25 -42.359375 51.375 -41.171875 C 51.613281 -39.378906 51.734375 -36.515625 51.734375 -32.578125 L 51.734375 -7.34375 C 51.734375 -3.757812 51.851562 -1.191406 52.09375 0.359375 L 62.46875 0.53125 C 66.769531 0.53125 70.769531 0.234375 74.46875 -0.359375 C 74.226562 -4.890625 74.109375 -8.648438 74.109375 -11.640625 C 74.109375 -15.816406 74.226562 -22.554688 74.46875 -31.859375 C 74.707031 -41.648438 74.828125 -48.8125 74.828125 -53.34375 C 74.828125 -61.570312 74.523438 -68.222656 73.921875 -73.296875 C 73.328125 -78.367188 72.253906 -81.625 70.703125 -83.0625 C 66.648438 -86.757812 61.101562 -88.609375 54.0625 -88.609375 C 50.238281 -88.609375 46.832031 -88.007812 43.84375 -86.8125 C 40.863281 -85.625 38.0625 -84.28125 35.4375 -82.78125 C 32.8125 -81.289062 31.082031 -80.304688 30.25 -79.828125 L 30.4375 -83.953125 C 30.4375 -88.003906 29.539062 -90.03125 27.75 -90.03125 Z M 27.75 -90.03125 "/></g></g></g><g fill="#ff26b9" fill-opacity="1"><g transform="translate(652.164746, 187.792196)"><g><path d="M 83.953125 -85.734375 C 84.191406 -83.828125 84.3125 -82.335938 84.3125 -81.265625 L 84.3125 -79.46875 C 84.1875 -76.25 84.125 -71.597656 84.125 -65.515625 L 84.3125 -45.46875 C 84.425781 -40.925781 84.484375 -34.179688 84.484375 -25.234375 C 84.484375 -18.191406 84.304688 -10.972656 83.953125 -3.578125 L 83.953125 -2.328125 C 83.953125 0.179688 83.769531 2.03125 83.40625 3.21875 C 83.050781 4.414062 81.976562 5.191406 80.1875 5.546875 L 77.6875 5.546875 C 76.019531 5.546875 73.867188 5.425781 71.234375 5.1875 L 66.046875 5.015625 C 65.210938 5.015625 63.960938 5.132812 62.296875 5.375 L 58.359375 5.546875 C 56.441406 5.066406 55.1875 3.875 54.59375 1.96875 C 53.039062 1.375 52.085938 0.71875 51.734375 0 C 45.523438 3.820312 39.378906 5.734375 33.296875 5.734375 C 26.972656 5.734375 21.394531 2.988281 16.5625 -2.5 C 11.726562 -7.988281 8.023438 -14.878906 5.453125 -23.171875 C 2.890625 -31.472656 1.609375 -39.617188 1.609375 -47.609375 C 1.609375 -56.679688 3.160156 -64.46875 6.265625 -70.96875 C 9.367188 -77.476562 13.632812 -82.398438 19.0625 -85.734375 C 24.488281 -89.078125 30.601562 -90.75 37.40625 -90.75 C 40.75 -90.75 43.34375 -90.507812 45.1875 -90.03125 C 47.039062 -89.5625 48.742188 -88.367188 50.296875 -86.453125 C 50.421875 -87.054688 50.539062 -88.015625 50.65625 -89.328125 C 50.78125 -90.640625 51.078125 -91.472656 51.546875 -91.828125 C 52.023438 -92.179688 52.800781 -92.359375 53.875 -92.359375 C 54.945312 -92.359375 55.929688 -92.269531 56.828125 -92.09375 C 57.722656 -91.914062 58.585938 -91.828125 59.421875 -91.828125 L 61.03125 -91.828125 C 64.132812 -91.828125 70.046875 -91.53125 78.765625 -90.9375 L 80.375 -89.328125 L 80.546875 -87.359375 L 82.34375 -87.359375 Z M 59.0625 -90.03125 L 54.234375 -90.21875 C 53.046875 -90.21875 52.332031 -89.46875 52.09375 -87.96875 C 51.851562 -86.476562 51.734375 -84.363281 51.734375 -81.625 L 51.734375 -80.734375 C 50.660156 -83.359375 49.285156 -85.265625 47.609375 -86.453125 C 45.941406 -87.648438 44.09375 -88.367188 42.0625 -88.609375 C 40.03125 -88.847656 37.164062 -88.96875 33.46875 -88.96875 C 27.863281 -88.84375 22.765625 -86.957031 18.171875 -83.3125 C 13.578125 -79.675781 9.96875 -74.753906 7.34375 -68.546875 C 4.71875 -62.347656 3.40625 -55.367188 3.40625 -47.609375 C 3.40625 -40.566406 4.359375 -33.347656 6.265625 -25.953125 C 8.171875 -18.554688 11.125 -12.320312 15.125 -7.25 C 19.125 -2.175781 23.988281 0.359375 29.71875 0.359375 C 33.769531 0.359375 37.972656 -0.625 42.328125 -2.59375 C 46.679688 -4.5625 50.351562 -7.039062 53.34375 -10.03125 C 53.34375 -9.3125 53.222656 -8.320312 52.984375 -7.0625 C 52.742188 -5.8125 52.625 -4.710938 52.625 -3.765625 C 52.625 -1.734375 53.34375 -0.421875 54.78125 0.171875 C 55.726562 0.171875 57.039062 0.0546875 58.71875 -0.171875 L 62.46875 -0.359375 L 68.375 -0.171875 C 71 0.0546875 72.910156 0.171875 74.109375 0.171875 L 76.25 0.171875 C 77.207031 -0.0546875 77.832031 -0.554688 78.125 -1.328125 C 78.425781 -2.109375 78.578125 -3.21875 78.578125 -4.65625 L 78.578125 -7.15625 C 79.054688 -14.195312 79.296875 -22.015625 79.296875 -30.609375 L 79.125 -50.296875 C 78.882812 -59.128906 78.765625 -65.8125 78.765625 -70.34375 C 78.765625 -75.957031 78.820312 -80.195312 78.9375 -83.0625 L 78.9375 -84.84375 C 78.9375 -85.800781 78.816406 -87.234375 78.578125 -89.140625 C 75.234375 -89.378906 69.382812 -89.675781 61.03125 -90.03125 Z M 43.140625 -64.984375 C 46.117188 -64.984375 48.234375 -64.710938 49.484375 -64.171875 C 50.742188 -63.628906 51.550781 -62.492188 51.90625 -60.765625 C 52.269531 -59.035156 52.453125 -56.144531 52.453125 -52.09375 L 52.453125 -42.25 C 52.453125 -37.945312 52.238281 -34.601562 51.8125 -32.21875 C 51.394531 -29.832031 50.378906 -27.984375 48.765625 -26.671875 C 47.160156 -25.359375 44.6875 -24.703125 41.34375 -24.703125 C 36.457031 -24.703125 32.582031 -26.550781 29.71875 -30.25 C 26.851562 -33.945312 25.421875 -38.539062 25.421875 -44.03125 C 25.421875 -47.96875 25.773438 -51.128906 26.484375 -53.515625 C 27.203125 -56.742188 28.992188 -59.460938 31.859375 -61.671875 C 34.722656 -63.878906 38.484375 -64.984375 43.140625 -64.984375 Z M 31.859375 -49.40625 C 31.140625 -47.019531 30.78125 -44.035156 30.78125 -40.453125 C 30.78125 -31.140625 34.300781 -26.484375 41.34375 -26.484375 C 44.332031 -26.484375 46.484375 -27.140625 47.796875 -28.453125 C 49.109375 -29.773438 49.910156 -31.566406 50.203125 -33.828125 C 50.503906 -36.097656 50.65625 -39.5625 50.65625 -44.21875 L 50.65625 -48.859375 L 50.84375 -54.234375 C 50.84375 -56.140625 50.570312 -57.507812 50.03125 -58.34375 C 49.488281 -59.1875 48.382812 -59.609375 46.71875 -59.609375 C 42.539062 -59.609375 39.195312 -58.648438 36.6875 -56.734375 C 34.1875 -54.828125 32.578125 -52.441406 31.859375 -49.578125 Z M 31.859375 -49.40625 "/></g></g></g><g fill="#ffffff" fill-opacity="0.4"><g transform="translate(277.886185, 392.999356)"><g><path d="M 75.71875 -56.75 C 80.132812 -51.375 83.414062 -46.71875 85.5625 -42.78125 C 87.707031 -38.84375 88.78125 -34.1875 88.78125 -28.8125 C 88.78125 -15.207031 84.570312 -5.957031 76.15625 -1.0625 C 67.75 3.820312 56.863281 6.265625 43.5 6.265625 C 36.8125 6.265625 31.023438 6.023438 26.140625 5.546875 L 26.3125 5.546875 L 15.21875 5.015625 L 13.25 5.015625 C 10.738281 5.015625 9.484375 3.820312 9.484375 1.4375 C 7.578125 0.957031 6.445312 0.65625 6.09375 0.53125 C 5.613281 -12 5.375 -26.195312 5.375 -42.0625 C 5.375 -55.1875 5.429688 -64.972656 5.546875 -71.421875 L 5.734375 -101.140625 L 5.734375 -125.484375 C 15.515625 -128.347656 25.296875 -129.78125 35.078125 -129.78125 C 43.796875 -129.78125 51.851562 -128.253906 59.25 -125.203125 C 66.644531 -122.160156 72.609375 -117.476562 77.140625 -111.15625 C 81.679688 -104.832031 83.953125 -96.898438 83.953125 -87.359375 C 83.953125 -78.523438 80.96875 -68.914062 75 -58.53125 L 75 -58.171875 C 75 -57.816406 75.238281 -57.398438 75.71875 -56.921875 Z M 69.265625 -61.578125 C 69.265625 -62.054688 69.445312 -62.535156 69.8125 -63.015625 C 75.65625 -72.796875 78.578125 -82.101562 78.578125 -90.9375 C 78.578125 -103.9375 74.457031 -113.359375 66.21875 -119.203125 C 57.988281 -125.054688 47.609375 -127.984375 35.078125 -127.984375 C 26.253906 -127.984375 17.066406 -126.671875 7.515625 -124.046875 L 7.34375 -123.875 C 7.457031 -118.257812 7.515625 -109.960938 7.515625 -98.984375 C 7.515625 -86.210938 7.457031 -76.664062 7.34375 -70.34375 L 7.15625 -41.703125 C 7.15625 -26.671875 7.394531 -13.007812 7.875 -0.71875 C 8.832031 -0.476562 9.429688 -0.359375 9.671875 -0.359375 L 11.8125 -0.359375 C 14.195312 -0.359375 16.375 -0.296875 18.34375 -0.171875 C 20.3125 -0.0546875 21.953125 0.0546875 23.265625 0.171875 C 30.429688 0.648438 35.984375 0.890625 39.921875 0.890625 C 52.804688 0.890625 63.273438 -1.429688 71.328125 -6.078125 C 79.378906 -10.734375 83.40625 -19.507812 83.40625 -32.40625 C 83.40625 -37.53125 82.363281 -41.972656 80.28125 -45.734375 C 78.195312 -49.492188 75.003906 -54 70.703125 -59.25 C 69.742188 -60.207031 69.265625 -60.984375 69.265625 -61.578125 Z M 40.640625 -74.640625 C 37.890625 -74.640625 35.320312 -74.820312 32.9375 -75.1875 C 32.21875 -77.570312 31.859375 -80.613281 31.859375 -84.3125 L 32.046875 -90.578125 C 32.160156 -91.648438 32.21875 -93.140625 32.21875 -95.046875 L 32.21875 -97.375 C 33.769531 -98.207031 35.976562 -98.625 38.84375 -98.625 C 43.132812 -98.625 47.070312 -97.816406 50.65625 -96.203125 C 54.238281 -94.597656 56.03125 -91.828125 56.03125 -87.890625 C 56.03125 -85.378906 55.253906 -82.929688 53.703125 -80.546875 C 52.503906 -78.285156 50.800781 -76.734375 48.59375 -75.890625 C 46.382812 -75.054688 43.734375 -74.640625 40.640625 -74.640625 Z M 54.234375 -87.890625 C 54.234375 -89.316406 53.875 -90.359375 53.15625 -91.015625 C 52.445312 -91.671875 51.316406 -92.179688 49.765625 -92.546875 L 49.9375 -92.546875 C 47.550781 -93.023438 45.046875 -93.265625 42.421875 -93.265625 C 40.273438 -93.265625 38.722656 -93.082031 37.765625 -92.71875 L 37.765625 -90.9375 L 37.59375 -84.84375 C 37.351562 -81.5 37.234375 -79.050781 37.234375 -77.5 L 37.40625 -76.4375 L 40.640625 -76.4375 C 46.484375 -76.4375 50.300781 -78.101562 52.09375 -81.4375 C 53.519531 -83.707031 54.234375 -85.859375 54.234375 -87.890625 Z M 33.65625 -25.0625 L 33.296875 -25.234375 C 31.617188 -27.503906 30.78125 -31.085938 30.78125 -35.984375 C 30.78125 -41.585938 31.4375 -46.359375 32.75 -50.296875 L 37.046875 -49.9375 C 40.867188 -49.820312 44.03125 -49.492188 46.53125 -48.953125 C 49.039062 -48.421875 51.191406 -47.140625 52.984375 -45.109375 C 54.773438 -43.078125 55.671875 -40.035156 55.671875 -35.984375 C 55.671875 -33.234375 55.070312 -31.082031 53.875 -29.53125 C 52.320312 -27.625 50.410156 -26.367188 48.140625 -25.765625 C 45.878906 -25.171875 43.195312 -24.875 40.09375 -24.875 Z M 53.875 -35.984375 C 53.875 -37.535156 53.519531 -39.625 52.8125 -42.25 L 52.8125 -42.0625 L 52.625 -42.25 C 50.238281 -43.675781 46.78125 -44.390625 42.25 -44.390625 C 41.175781 -44.390625 39.679688 -44.507812 37.765625 -44.75 C 36.691406 -39.375 36.15625 -35.257812 36.15625 -32.40625 C 36.15625 -31.925781 36.125 -31.085938 36.0625 -29.890625 C 36.007812 -28.703125 36.3125 -27.867188 36.96875 -27.390625 C 37.625 -26.910156 38.726562 -26.671875 40.28125 -26.671875 C 43.144531 -26.671875 45.5625 -26.9375 47.53125 -27.46875 C 49.5 -28.007812 51.140625 -29.054688 52.453125 -30.609375 C 53.398438 -31.921875 53.875 -33.710938 53.875 -35.984375 Z M 53.875 -35.984375 "/></g></g></g><g fill="#ffffff" fill-opacity="0.4"><g transform="translate(363.265466, 392.999356)"><g><path d="M 33.109375 -127.8125 L 36.6875 -127.8125 C 36.6875 -122.320312 36.570312 -109.671875 36.34375 -89.859375 C 36.21875 -84.015625 36.09375 -76.316406 35.96875 -66.765625 C 35.851562 -57.222656 35.796875 -46.066406 35.796875 -33.296875 C 35.796875 -16.828125 36.035156 -4.710938 36.515625 3.046875 C 35.554688 3.992188 34.242188 4.644531 32.578125 5 C 30.910156 5.363281 28.765625 5.546875 26.140625 5.546875 C 22.671875 5.546875 20.046875 5.488281 18.265625 5.375 L 18.4375 5.375 L 14.140625 5.1875 C 11.515625 5.1875 9.304688 5.488281 7.515625 6.09375 L 7.703125 1.796875 C 6.265625 1.796875 5.007812 2.03125 3.9375 2.5 C 4.769531 -9.1875 5.1875 -19.984375 5.1875 -29.890625 C 5.1875 -37.171875 4.945312 -48.328125 4.46875 -63.359375 C 4 -78.160156 3.765625 -89.441406 3.765625 -97.203125 C 3.765625 -109.722656 4.300781 -121.296875 5.375 -131.921875 L 33.109375 -131.390625 Z M 6.984375 -130.140625 C 5.910156 -118.679688 5.375 -107.28125 5.375 -95.9375 C 5.375 -85.675781 5.671875 -74.398438 6.265625 -62.109375 C 6.742188 -47.078125 6.984375 -35.921875 6.984375 -28.640625 C 6.984375 -19.085938 6.625 -9.539062 5.90625 0 C 6.144531 -0.113281 7.097656 -0.171875 8.765625 -0.171875 C 11.273438 -0.171875 13.304688 -0.113281 14.859375 0 L 22.90625 0.171875 C 25.53125 0.171875 27.46875 0.113281 28.71875 0 C 29.976562 -0.113281 30.785156 -0.472656 31.140625 -1.078125 C 30.785156 -6.921875 30.609375 -18.910156 30.609375 -37.046875 C 30.609375 -50.773438 30.726562 -69.570312 30.96875 -93.4375 L 31.328125 -129.59375 Z M 6.984375 -130.140625 "/></g></g></g><g fill="#ffffff" fill-opacity="0.4"><g transform="translate(400.137858, 392.999356)"><g><path d="M 6.4375 -82.34375 C 8.226562 -86.15625 11.78125 -89.015625 17.09375 -90.921875 C 22.40625 -92.835938 28.398438 -93.796875 35.078125 -93.796875 C 36.035156 -93.671875 38.242188 -93.609375 41.703125 -93.609375 L 46 -93.796875 C 50.539062 -93.796875 54.957031 -93.078125 59.25 -91.640625 C 63.539062 -90.210938 67.117188 -88.128906 69.984375 -85.390625 L 69.8125 -85.390625 C 70.164062 -84.910156 70.703125 -84.28125 71.421875 -83.5 C 72.140625 -82.726562 72.796875 -82.160156 73.390625 -81.796875 L 73.21875 -81.984375 C 76.4375 -79.835938 78.609375 -75.539062 79.734375 -69.09375 C 80.867188 -62.644531 81.4375 -54.648438 81.4375 -45.109375 C 81.4375 -36.640625 80.898438 -27.867188 79.828125 -18.796875 C 78.753906 -9.722656 77.265625 -4.113281 75.359375 -1.96875 C 72.847656 1.613281 69.445312 4.0625 65.15625 5.375 C 60.863281 6.6875 55.851562 7.34375 50.125 7.34375 C 44.03125 7.34375 39.101562 7.160156 35.34375 6.796875 C 31.59375 6.441406 27.894531 5.457031 24.25 3.84375 C 20.613281 2.238281 17.125 -0.296875 13.78125 -3.765625 L 12.171875 -5.375 C 8.472656 -8.832031 5.96875 -13.273438 4.65625 -18.703125 C 3.34375 -24.128906 2.6875 -30.484375 2.6875 -37.765625 L 2.6875 -44.21875 L 2.859375 -50.296875 C 2.859375 -51.734375 2.796875 -53.109375 2.671875 -54.421875 C 2.554688 -55.734375 2.5 -56.925781 2.5 -58 C 2.5 -63.125 2.617188 -67 2.859375 -69.625 C 3.097656 -72.25 3.992188 -75.414062 5.546875 -79.125 L 5.375 -79.125 C 5.488281 -79.832031 5.632812 -80.546875 5.8125 -81.265625 C 6 -81.984375 6.207031 -82.460938 6.4375 -82.703125 L 6.4375 -82.515625 L 6.265625 -81.984375 Z M 4.46875 -50.65625 L 4.46875 -37.40625 C 4.46875 -26.90625 6.226562 -18.222656 9.75 -11.359375 C 13.269531 -4.503906 19.625 -0.300781 28.8125 1.25 L 37.234375 1.4375 C 41.285156 1.675781 44.445312 1.796875 46.71875 1.796875 C 52.320312 1.796875 57.09375 1.195312 61.03125 0 C 64.976562 -1.195312 68.082031 -3.40625 70.34375 -6.625 C 72.375 -8.65625 73.71875 -13.1875 74.375 -20.21875 C 75.03125 -27.257812 75.597656 -36.75 76.078125 -48.6875 C 76.078125 -49.757812 75.957031 -53.609375 75.71875 -60.234375 C 75.476562 -66.859375 74.789062 -72.164062 73.65625 -76.15625 C 72.519531 -80.15625 70.878906 -82.8125 68.734375 -84.125 C 63.367188 -89.375 55.550781 -92 45.28125 -92 L 38.484375 -91.828125 C 36.929688 -91.828125 35.738281 -91.882812 34.90625 -92 C 28.820312 -92 23.210938 -91.101562 18.078125 -89.3125 C 12.941406 -87.53125 9.601562 -84.96875 8.0625 -81.625 C 6.75 -76.96875 5.789062 -72.847656 5.1875 -69.265625 C 4.59375 -65.691406 4.296875 -61.992188 4.296875 -58.171875 Z M 41.171875 -64.984375 C 49.523438 -64.984375 53.703125 -58.773438 53.703125 -46.359375 C 53.703125 -41.222656 53.460938 -37.132812 52.984375 -34.09375 C 52.503906 -31.050781 51.25 -28.578125 49.21875 -26.671875 C 47.195312 -24.765625 44.097656 -23.8125 39.921875 -23.8125 C 36.335938 -23.8125 33.410156 -24.585938 31.140625 -26.140625 C 28.878906 -27.691406 27.75 -30.195312 27.75 -33.65625 C 27.863281 -35.207031 27.921875 -37.953125 27.921875 -41.890625 C 27.921875 -47.378906 28.066406 -51.644531 28.359375 -54.6875 C 28.660156 -57.726562 29.351562 -59.664062 30.4375 -60.5 C 32.820312 -63.488281 36.398438 -64.984375 41.171875 -64.984375 Z M 35.078125 -55.484375 C 34.128906 -54.890625 33.5625 -52.175781 33.375 -47.34375 C 33.195312 -42.507812 33.109375 -36.691406 33.109375 -29.890625 C 33.109375 -27.984375 33.703125 -26.789062 34.890625 -26.3125 C 36.085938 -25.832031 37.765625 -25.59375 39.921875 -25.59375 C 47.203125 -25.59375 50.84375 -28.097656 50.84375 -33.109375 C 51.550781 -39.554688 51.90625 -44.210938 51.90625 -47.078125 C 51.90625 -51.015625 51.457031 -54.054688 50.5625 -56.203125 C 49.664062 -58.347656 47.609375 -59.421875 44.390625 -59.421875 C 43.671875 -59.421875 42.359375 -59.300781 40.453125 -59.0625 L 40.640625 -59.0625 C 38.367188 -58.46875 36.632812 -57.394531 35.4375 -55.84375 Z M 35.078125 -55.484375 "/></g></g></g><g fill="#ffffff" fill-opacity="0.4"><g transform="translate(480.326363, 392.999356)"><g><path d="M 6.4375 -82.34375 C 8.226562 -86.15625 11.78125 -89.015625 17.09375 -90.921875 C 22.40625 -92.835938 28.398438 -93.796875 35.078125 -93.796875 C 36.035156 -93.671875 38.242188 -93.609375 41.703125 -93.609375 L 46 -93.796875 C 50.539062 -93.796875 54.957031 -93.078125 59.25 -91.640625 C 63.539062 -90.210938 67.117188 -88.128906 69.984375 -85.390625 L 69.8125 -85.390625 C 70.164062 -84.910156 70.703125 -84.28125 71.421875 -83.5 C 72.140625 -82.726562 72.796875 -82.160156 73.390625 -81.796875 L 73.21875 -81.984375 C 76.4375 -79.835938 78.609375 -75.539062 79.734375 -69.09375 C 80.867188 -62.644531 81.4375 -54.648438 81.4375 -45.109375 C 81.4375 -36.640625 80.898438 -27.867188 79.828125 -18.796875 C 78.753906 -9.722656 77.265625 -4.113281 75.359375 -1.96875 C 72.847656 1.613281 69.445312 4.0625 65.15625 5.375 C 60.863281 6.6875 55.851562 7.34375 50.125 7.34375 C 44.03125 7.34375 39.101562 7.160156 35.34375 6.796875 C 31.59375 6.441406 27.894531 5.457031 24.25 3.84375 C 20.613281 2.238281 17.125 -0.296875 13.78125 -3.765625 L 12.171875 -5.375 C 8.472656 -8.832031 5.96875 -13.273438 4.65625 -18.703125 C 3.34375 -24.128906 2.6875 -30.484375 2.6875 -37.765625 L 2.6875 -44.21875 L 2.859375 -50.296875 C 2.859375 -51.734375 2.796875 -53.109375 2.671875 -54.421875 C 2.554688 -55.734375 2.5 -56.925781 2.5 -58 C 2.5 -63.125 2.617188 -67 2.859375 -69.625 C 3.097656 -72.25 3.992188 -75.414062 5.546875 -79.125 L 5.375 -79.125 C 5.488281 -79.832031 5.632812 -80.546875 5.8125 -81.265625 C 6 -81.984375 6.207031 -82.460938 6.4375 -82.703125 L 6.4375 -82.515625 L 6.265625 -81.984375 Z M 4.46875 -50.65625 L 4.46875 -37.40625 C 4.46875 -26.90625 6.226562 -18.222656 9.75 -11.359375 C 13.269531 -4.503906 19.625 -0.300781 28.8125 1.25 L 37.234375 1.4375 C 41.285156 1.675781 44.445312 1.796875 46.71875 1.796875 C 52.320312 1.796875 57.09375 1.195312 61.03125 0 C 64.976562 -1.195312 68.082031 -3.40625 70.34375 -6.625 C 72.375 -8.65625 73.71875 -13.1875 74.375 -20.21875 C 75.03125 -27.257812 75.597656 -36.75 76.078125 -48.6875 C 76.078125 -49.757812 75.957031 -53.609375 75.71875 -60.234375 C 75.476562 -66.859375 74.789062 -72.164062 73.65625 -76.15625 C 72.519531 -80.15625 70.878906 -82.8125 68.734375 -84.125 C 63.367188 -89.375 55.550781 -92 45.28125 -92 L 38.484375 -91.828125 C 36.929688 -91.828125 35.738281 -91.882812 34.90625 -92 C 28.820312 -92 23.210938 -91.101562 18.078125 -89.3125 C 12.941406 -87.53125 9.601562 -84.96875 8.0625 -81.625 C 6.75 -76.96875 5.789062 -72.847656 5.1875 -69.265625 C 4.59375 -65.691406 4.296875 -61.992188 4.296875 -58.171875 Z M 41.171875 -64.984375 C 49.523438 -64.984375 53.703125 -58.773438 53.703125 -46.359375 C 53.703125 -41.222656 53.460938 -37.132812 52.984375 -34.09375 C 52.503906 -31.050781 51.25 -28.578125 49.21875 -26.671875 C 47.195312 -24.765625 44.097656 -23.8125 39.921875 -23.8125 C 36.335938 -23.8125 33.410156 -24.585938 31.140625 -26.140625 C 28.878906 -27.691406 27.75 -30.195312 27.75 -33.65625 C 27.863281 -35.207031 27.921875 -37.953125 27.921875 -41.890625 C 27.921875 -47.378906 28.066406 -51.644531 28.359375 -54.6875 C 28.660156 -57.726562 29.351562 -59.664062 30.4375 -60.5 C 32.820312 -63.488281 36.398438 -64.984375 41.171875 -64.984375 Z M 35.078125 -55.484375 C 34.128906 -54.890625 33.5625 -52.175781 33.375 -47.34375 C 33.195312 -42.507812 33.109375 -36.691406 33.109375 -29.890625 C 33.109375 -27.984375 33.703125 -26.789062 34.890625 -26.3125 C 36.085938 -25.832031 37.765625 -25.59375 39.921875 -25.59375 C 47.203125 -25.59375 50.84375 -28.097656 50.84375 -33.109375 C 51.550781 -39.554688 51.90625 -44.210938 51.90625 -47.078125 C 51.90625 -51.015625 51.457031 -54.054688 50.5625 -56.203125 C 49.664062 -58.347656 47.609375 -59.421875 44.390625 -59.421875 C 43.671875 -59.421875 42.359375 -59.300781 40.453125 -59.0625 L 40.640625 -59.0625 C 38.367188 -58.46875 36.632812 -57.394531 35.4375 -55.84375 Z M 35.078125 -55.484375 "/></g></g></g><g fill="#ffffff" fill-opacity="0.4"><g transform="translate(560.514856, 392.999356)"><g><path d="M 81.09375 -110.625 C 81.09375 -99.757812 81.328125 -83.945312 81.796875 -63.1875 C 81.921875 -58.050781 82.039062 -51.722656 82.15625 -44.203125 C 82.28125 -36.691406 82.34375 -28.046875 82.34375 -18.265625 C 82.34375 -7.285156 82.28125 0.53125 82.15625 5.1875 L 71.421875 5.375 C 69.035156 5.488281 65.515625 5.546875 60.859375 5.546875 C 58.710938 5.546875 57.070312 5.304688 55.9375 4.828125 C 54.800781 4.347656 54.234375 3.394531 54.234375 1.96875 L 54.234375 1.609375 L 51.90625 1.4375 L 51.546875 1.078125 C 48.441406 3.703125 44.566406 5.015625 39.921875 5.015625 C 34.671875 5.015625 30.046875 4.054688 26.046875 2.140625 C 22.046875 0.234375 18.734375 -2.269531 16.109375 -5.375 C 6.679688 -12.882812 1.96875 -28.097656 1.96875 -51.015625 C 1.96875 -60.203125 3.28125 -68.316406 5.90625 -75.359375 C 8.53125 -82.398438 12.46875 -86.9375 17.71875 -88.96875 C 22.132812 -90.75 27.6875 -91.640625 34.375 -91.640625 C 41.53125 -91.640625 47.019531 -90.628906 50.84375 -88.609375 L 50.484375 -106.859375 C 50.484375 -109.609375 50.601562 -112.890625 50.84375 -116.703125 L 51.375 -123.875 L 51.375 -125.84375 C 51.375 -126.4375 52.832031 -127.03125 55.75 -127.625 C 58.675781 -128.21875 61.867188 -128.515625 65.328125 -128.515625 C 69.984375 -128.515625 74.039062 -128.160156 77.5 -127.453125 L 77.5 -124.40625 L 81.09375 -123.875 Z M 76.796875 -0.171875 C 76.910156 -4.347656 76.96875 -10.851562 76.96875 -19.6875 C 76.96875 -29.351562 76.90625 -37.972656 76.78125 -45.546875 C 76.664062 -53.128906 76.550781 -59.546875 76.4375 -64.796875 C 75.957031 -86.273438 75.71875 -102.742188 75.71875 -114.203125 L 75.71875 -126.015625 C 73.207031 -126.492188 69.742188 -126.734375 65.328125 -126.734375 C 62.347656 -126.734375 59.570312 -126.640625 57 -126.453125 C 54.4375 -126.273438 53.15625 -126.070312 53.15625 -125.84375 L 53.15625 -123.875 L 52.8125 -117.609375 C 52.570312 -115.335938 52.453125 -111.753906 52.453125 -106.859375 L 52.453125 -98.625 C 52.453125 -93.257812 52.507812 -88.726562 52.625 -85.03125 C 52.144531 -86.34375 50.113281 -87.472656 46.53125 -88.421875 C 42.957031 -89.378906 38.84375 -89.859375 34.1875 -89.859375 C 28.820312 -89.859375 23.515625 -89.023438 18.265625 -87.359375 C 13.242188 -85.566406 9.570312 -81.328125 7.25 -74.640625 C 4.925781 -67.960938 3.765625 -60.085938 3.765625 -51.015625 C 3.992188 -40.753906 4.851562 -32.101562 6.34375 -25.0625 C 7.84375 -18.019531 11.007812 -12.140625 15.84375 -7.421875 C 20.675781 -2.710938 27.804688 -0.359375 37.234375 -0.359375 C 43.316406 -0.359375 47.734375 -2.984375 50.484375 -8.234375 C 50.597656 -8.710938 50.832031 -8.953125 51.1875 -8.953125 C 51.664062 -8.953125 52.082031 -7.578125 52.4375 -4.828125 C 52.800781 -2.085938 52.863281 -0.597656 52.625 -0.359375 C 55.375 -0.00390625 58.414062 0.171875 61.75 0.171875 L 69.625 0 C 71.300781 -0.113281 73.691406 -0.171875 76.796875 -0.171875 Z M 42.421875 -69.09375 C 46.003906 -69.09375 48.507812 -68.644531 49.9375 -67.75 C 51.375 -66.851562 52.300781 -65.09375 52.71875 -62.46875 C 53.132812 -59.84375 53.34375 -55.191406 53.34375 -48.515625 C 53.34375 -42.546875 53.070312 -37.769531 52.53125 -34.1875 C 52 -30.601562 50.804688 -27.765625 48.953125 -25.671875 C 47.109375 -23.585938 44.273438 -22.546875 40.453125 -22.546875 C 35.554688 -22.546875 31.617188 -24.875 28.640625 -29.53125 C 25.660156 -34.1875 24.171875 -39.675781 24.171875 -46 C 24.171875 -50.65625 24.585938 -54.117188 25.421875 -56.390625 C 26.734375 -64.859375 32.398438 -69.09375 42.421875 -69.09375 Z M 51.546875 -55.3125 C 51.546875 -58.53125 51.21875 -60.734375 50.5625 -61.921875 C 49.90625 -63.117188 48.382812 -63.71875 46 -63.71875 C 36.9375 -63.71875 31.863281 -60.019531 30.78125 -52.625 L 30.609375 -52.265625 C 29.890625 -50.597656 29.53125 -48.09375 29.53125 -44.75 C 29.53125 -31.144531 33.171875 -24.34375 40.453125 -24.34375 C 43.796875 -24.34375 46.269531 -25.328125 47.875 -27.296875 C 49.488281 -29.265625 50.503906 -31.890625 50.921875 -35.171875 C 51.335938 -38.453125 51.546875 -42.898438 51.546875 -48.515625 Z M 51.546875 -55.3125 "/></g></g></g><g fill="#ff26b9" fill-opacity="1"><g transform="translate(267.246089, 389.54218)"><g><path d="M 75.71875 -56.75 C 80.132812 -51.375 83.414062 -46.71875 85.5625 -42.78125 C 87.707031 -38.84375 88.78125 -34.1875 88.78125 -28.8125 C 88.78125 -15.207031 84.570312 -5.957031 76.15625 -1.0625 C 67.75 3.820312 56.863281 6.265625 43.5 6.265625 C 36.8125 6.265625 31.023438 6.023438 26.140625 5.546875 L 26.3125 5.546875 L 15.21875 5.015625 L 13.25 5.015625 C 10.738281 5.015625 9.484375 3.820312 9.484375 1.4375 C 7.578125 0.957031 6.445312 0.65625 6.09375 0.53125 C 5.613281 -12 5.375 -26.195312 5.375 -42.0625 C 5.375 -55.1875 5.429688 -64.972656 5.546875 -71.421875 L 5.734375 -101.140625 L 5.734375 -125.484375 C 15.515625 -128.347656 25.296875 -129.78125 35.078125 -129.78125 C 43.796875 -129.78125 51.851562 -128.253906 59.25 -125.203125 C 66.644531 -122.160156 72.609375 -117.476562 77.140625 -111.15625 C 81.679688 -104.832031 83.953125 -96.898438 83.953125 -87.359375 C 83.953125 -78.523438 80.96875 -68.914062 75 -58.53125 L 75 -58.171875 C 75 -57.816406 75.238281 -57.398438 75.71875 -56.921875 Z M 69.265625 -61.578125 C 69.265625 -62.054688 69.445312 -62.535156 69.8125 -63.015625 C 75.65625 -72.796875 78.578125 -82.101562 78.578125 -90.9375 C 78.578125 -103.9375 74.457031 -113.359375 66.21875 -119.203125 C 57.988281 -125.054688 47.609375 -127.984375 35.078125 -127.984375 C 26.253906 -127.984375 17.066406 -126.671875 7.515625 -124.046875 L 7.34375 -123.875 C 7.457031 -118.257812 7.515625 -109.960938 7.515625 -98.984375 C 7.515625 -86.210938 7.457031 -76.664062 7.34375 -70.34375 L 7.15625 -41.703125 C 7.15625 -26.671875 7.394531 -13.007812 7.875 -0.71875 C 8.832031 -0.476562 9.429688 -0.359375 9.671875 -0.359375 L 11.8125 -0.359375 C 14.195312 -0.359375 16.375 -0.296875 18.34375 -0.171875 C 20.3125 -0.0546875 21.953125 0.0546875 23.265625 0.171875 C 30.429688 0.648438 35.984375 0.890625 39.921875 0.890625 C 52.804688 0.890625 63.273438 -1.429688 71.328125 -6.078125 C 79.378906 -10.734375 83.40625 -19.507812 83.40625 -32.40625 C 83.40625 -37.53125 82.363281 -41.972656 80.28125 -45.734375 C 78.195312 -49.492188 75.003906 -54 70.703125 -59.25 C 69.742188 -60.207031 69.265625 -60.984375 69.265625 -61.578125 Z M 40.640625 -74.640625 C 37.890625 -74.640625 35.320312 -74.820312 32.9375 -75.1875 C 32.21875 -77.570312 31.859375 -80.613281 31.859375 -84.3125 L 32.046875 -90.578125 C 32.160156 -91.648438 32.21875 -93.140625 32.21875 -95.046875 L 32.21875 -97.375 C 33.769531 -98.207031 35.976562 -98.625 38.84375 -98.625 C 43.132812 -98.625 47.070312 -97.816406 50.65625 -96.203125 C 54.238281 -94.597656 56.03125 -91.828125 56.03125 -87.890625 C 56.03125 -85.378906 55.253906 -82.929688 53.703125 -80.546875 C 52.503906 -78.285156 50.800781 -76.734375 48.59375 -75.890625 C 46.382812 -75.054688 43.734375 -74.640625 40.640625 -74.640625 Z M 54.234375 -87.890625 C 54.234375 -89.316406 53.875 -90.359375 53.15625 -91.015625 C 52.445312 -91.671875 51.316406 -92.179688 49.765625 -92.546875 L 49.9375 -92.546875 C 47.550781 -93.023438 45.046875 -93.265625 42.421875 -93.265625 C 40.273438 -93.265625 38.722656 -93.082031 37.765625 -92.71875 L 37.765625 -90.9375 L 37.59375 -84.84375 C 37.351562 -81.5 37.234375 -79.050781 37.234375 -77.5 L 37.40625 -76.4375 L 40.640625 -76.4375 C 46.484375 -76.4375 50.300781 -78.101562 52.09375 -81.4375 C 53.519531 -83.707031 54.234375 -85.859375 54.234375 -87.890625 Z M 33.65625 -25.0625 L 33.296875 -25.234375 C 31.617188 -27.503906 30.78125 -31.085938 30.78125 -35.984375 C 30.78125 -41.585938 31.4375 -46.359375 32.75 -50.296875 L 37.046875 -49.9375 C 40.867188 -49.820312 44.03125 -49.492188 46.53125 -48.953125 C 49.039062 -48.421875 51.191406 -47.140625 52.984375 -45.109375 C 54.773438 -43.078125 55.671875 -40.035156 55.671875 -35.984375 C 55.671875 -33.234375 55.070312 -31.082031 53.875 -29.53125 C 52.320312 -27.625 50.410156 -26.367188 48.140625 -25.765625 C 45.878906 -25.171875 43.195312 -24.875 40.09375 -24.875 Z M 53.875 -35.984375 C 53.875 -37.535156 53.519531 -39.625 52.8125 -42.25 L 52.8125 -42.0625 L 52.625 -42.25 C 50.238281 -43.675781 46.78125 -44.390625 42.25 -44.390625 C 41.175781 -44.390625 39.679688 -44.507812 37.765625 -44.75 C 36.691406 -39.375 36.15625 -35.257812 36.15625 -32.40625 C 36.15625 -31.925781 36.125 -31.085938 36.0625 -29.890625 C 36.007812 -28.703125 36.3125 -27.867188 36.96875 -27.390625 C 37.625 -26.910156 38.726562 -26.671875 40.28125 -26.671875 C 43.144531 -26.671875 45.5625 -26.9375 47.53125 -27.46875 C 49.5 -28.007812 51.140625 -29.054688 52.453125 -30.609375 C 53.398438 -31.921875 53.875 -33.710938 53.875 -35.984375 Z M 53.875 -35.984375 "/></g></g></g><g fill="#ff26b9" fill-opacity="1"><g transform="translate(352.625369, 389.54218)"><g><path d="M 33.109375 -127.8125 L 36.6875 -127.8125 C 36.6875 -122.320312 36.570312 -109.671875 36.34375 -89.859375 C 36.21875 -84.015625 36.09375 -76.316406 35.96875 -66.765625 C 35.851562 -57.222656 35.796875 -46.066406 35.796875 -33.296875 C 35.796875 -16.828125 36.035156 -4.710938 36.515625 3.046875 C 35.554688 3.992188 34.242188 4.644531 32.578125 5 C 30.910156 5.363281 28.765625 5.546875 26.140625 5.546875 C 22.671875 5.546875 20.046875 5.488281 18.265625 5.375 L 18.4375 5.375 L 14.140625 5.1875 C 11.515625 5.1875 9.304688 5.488281 7.515625 6.09375 L 7.703125 1.796875 C 6.265625 1.796875 5.007812 2.03125 3.9375 2.5 C 4.769531 -9.1875 5.1875 -19.984375 5.1875 -29.890625 C 5.1875 -37.171875 4.945312 -48.328125 4.46875 -63.359375 C 4 -78.160156 3.765625 -89.441406 3.765625 -97.203125 C 3.765625 -109.722656 4.300781 -121.296875 5.375 -131.921875 L 33.109375 -131.390625 Z M 6.984375 -130.140625 C 5.910156 -118.679688 5.375 -107.28125 5.375 -95.9375 C 5.375 -85.675781 5.671875 -74.398438 6.265625 -62.109375 C 6.742188 -47.078125 6.984375 -35.921875 6.984375 -28.640625 C 6.984375 -19.085938 6.625 -9.539062 5.90625 0 C 6.144531 -0.113281 7.097656 -0.171875 8.765625 -0.171875 C 11.273438 -0.171875 13.304688 -0.113281 14.859375 0 L 22.90625 0.171875 C 25.53125 0.171875 27.46875 0.113281 28.71875 0 C 29.976562 -0.113281 30.785156 -0.472656 31.140625 -1.078125 C 30.785156 -6.921875 30.609375 -18.910156 30.609375 -37.046875 C 30.609375 -50.773438 30.726562 -69.570312 30.96875 -93.4375 L 31.328125 -129.59375 Z M 6.984375 -130.140625 "/></g></g></g><g fill="#ff26b9" fill-opacity="1"><g transform="translate(389.497761, 389.54218)"><g><path d="M 6.4375 -82.34375 C 8.226562 -86.15625 11.78125 -89.015625 17.09375 -90.921875 C 22.40625 -92.835938 28.398438 -93.796875 35.078125 -93.796875 C 36.035156 -93.671875 38.242188 -93.609375 41.703125 -93.609375 L 46 -93.796875 C 50.539062 -93.796875 54.957031 -93.078125 59.25 -91.640625 C 63.539062 -90.210938 67.117188 -88.128906 69.984375 -85.390625 L 69.8125 -85.390625 C 70.164062 -84.910156 70.703125 -84.28125 71.421875 -83.5 C 72.140625 -82.726562 72.796875 -82.160156 73.390625 -81.796875 L 73.21875 -81.984375 C 76.4375 -79.835938 78.609375 -75.539062 79.734375 -69.09375 C 80.867188 -62.644531 81.4375 -54.648438 81.4375 -45.109375 C 81.4375 -36.640625 80.898438 -27.867188 79.828125 -18.796875 C 78.753906 -9.722656 77.265625 -4.113281 75.359375 -1.96875 C 72.847656 1.613281 69.445312 4.0625 65.15625 5.375 C 60.863281 6.6875 55.851562 7.34375 50.125 7.34375 C 44.03125 7.34375 39.101562 7.160156 35.34375 6.796875 C 31.59375 6.441406 27.894531 5.457031 24.25 3.84375 C 20.613281 2.238281 17.125 -0.296875 13.78125 -3.765625 L 12.171875 -5.375 C 8.472656 -8.832031 5.96875 -13.273438 4.65625 -18.703125 C 3.34375 -24.128906 2.6875 -30.484375 2.6875 -37.765625 L 2.6875 -44.21875 L 2.859375 -50.296875 C 2.859375 -51.734375 2.796875 -53.109375 2.671875 -54.421875 C 2.554688 -55.734375 2.5 -56.925781 2.5 -58 C 2.5 -63.125 2.617188 -67 2.859375 -69.625 C 3.097656 -72.25 3.992188 -75.414062 5.546875 -79.125 L 5.375 -79.125 C 5.488281 -79.832031 5.632812 -80.546875 5.8125 -81.265625 C 6 -81.984375 6.207031 -82.460938 6.4375 -82.703125 L 6.4375 -82.515625 L 6.265625 -81.984375 Z M 4.46875 -50.65625 L 4.46875 -37.40625 C 4.46875 -26.90625 6.226562 -18.222656 9.75 -11.359375 C 13.269531 -4.503906 19.625 -0.300781 28.8125 1.25 L 37.234375 1.4375 C 41.285156 1.675781 44.445312 1.796875 46.71875 1.796875 C 52.320312 1.796875 57.09375 1.195312 61.03125 0 C 64.976562 -1.195312 68.082031 -3.40625 70.34375 -6.625 C 72.375 -8.65625 73.71875 -13.1875 74.375 -20.21875 C 75.03125 -27.257812 75.597656 -36.75 76.078125 -48.6875 C 76.078125 -49.757812 75.957031 -53.609375 75.71875 -60.234375 C 75.476562 -66.859375 74.789062 -72.164062 73.65625 -76.15625 C 72.519531 -80.15625 70.878906 -82.8125 68.734375 -84.125 C 63.367188 -89.375 55.550781 -92 45.28125 -92 L 38.484375 -91.828125 C 36.929688 -91.828125 35.738281 -91.882812 34.90625 -92 C 28.820312 -92 23.210938 -91.101562 18.078125 -89.3125 C 12.941406 -87.53125 9.601562 -84.96875 8.0625 -81.625 C 6.75 -76.96875 5.789062 -72.847656 5.1875 -69.265625 C 4.59375 -65.691406 4.296875 -61.992188 4.296875 -58.171875 Z M 41.171875 -64.984375 C 49.523438 -64.984375 53.703125 -58.773438 53.703125 -46.359375 C 53.703125 -41.222656 53.460938 -37.132812 52.984375 -34.09375 C 52.503906 -31.050781 51.25 -28.578125 49.21875 -26.671875 C 47.195312 -24.765625 44.097656 -23.8125 39.921875 -23.8125 C 36.335938 -23.8125 33.410156 -24.585938 31.140625 -26.140625 C 28.878906 -27.691406 27.75 -30.195312 27.75 -33.65625 C 27.863281 -35.207031 27.921875 -37.953125 27.921875 -41.890625 C 27.921875 -47.378906 28.066406 -51.644531 28.359375 -54.6875 C 28.660156 -57.726562 29.351562 -59.664062 30.4375 -60.5 C 32.820312 -63.488281 36.398438 -64.984375 41.171875 -64.984375 Z M 35.078125 -55.484375 C 34.128906 -54.890625 33.5625 -52.175781 33.375 -47.34375 C 33.195312 -42.507812 33.109375 -36.691406 33.109375 -29.890625 C 33.109375 -27.984375 33.703125 -26.789062 34.890625 -26.3125 C 36.085938 -25.832031 37.765625 -25.59375 39.921875 -25.59375 C 47.203125 -25.59375 50.84375 -28.097656 50.84375 -33.109375 C 51.550781 -39.554688 51.90625 -44.210938 51.90625 -47.078125 C 51.90625 -51.015625 51.457031 -54.054688 50.5625 -56.203125 C 49.664062 -58.347656 47.609375 -59.421875 44.390625 -59.421875 C 43.671875 -59.421875 42.359375 -59.300781 40.453125 -59.0625 L 40.640625 -59.0625 C 38.367188 -58.46875 36.632812 -57.394531 35.4375 -55.84375 Z M 35.078125 -55.484375 "/></g></g></g><g fill="#ff26b9" fill-opacity="1"><g transform="translate(469.686266, 389.54218)"><g><path d="M 6.4375 -82.34375 C 8.226562 -86.15625 11.78125 -89.015625 17.09375 -90.921875 C 22.40625 -92.835938 28.398438 -93.796875 35.078125 -93.796875 C 36.035156 -93.671875 38.242188 -93.609375 41.703125 -93.609375 L 46 -93.796875 C 50.539062 -93.796875 54.957031 -93.078125 59.25 -91.640625 C 63.539062 -90.210938 67.117188 -88.128906 69.984375 -85.390625 L 69.8125 -85.390625 C 70.164062 -84.910156 70.703125 -84.28125 71.421875 -83.5 C 72.140625 -82.726562 72.796875 -82.160156 73.390625 -81.796875 L 73.21875 -81.984375 C 76.4375 -79.835938 78.609375 -75.539062 79.734375 -69.09375 C 80.867188 -62.644531 81.4375 -54.648438 81.4375 -45.109375 C 81.4375 -36.640625 80.898438 -27.867188 79.828125 -18.796875 C 78.753906 -9.722656 77.265625 -4.113281 75.359375 -1.96875 C 72.847656 1.613281 69.445312 4.0625 65.15625 5.375 C 60.863281 6.6875 55.851562 7.34375 50.125 7.34375 C 44.03125 7.34375 39.101562 7.160156 35.34375 6.796875 C 31.59375 6.441406 27.894531 5.457031 24.25 3.84375 C 20.613281 2.238281 17.125 -0.296875 13.78125 -3.765625 L 12.171875 -5.375 C 8.472656 -8.832031 5.96875 -13.273438 4.65625 -18.703125 C 3.34375 -24.128906 2.6875 -30.484375 2.6875 -37.765625 L 2.6875 -44.21875 L 2.859375 -50.296875 C 2.859375 -51.734375 2.796875 -53.109375 2.671875 -54.421875 C 2.554688 -55.734375 2.5 -56.925781 2.5 -58 C 2.5 -63.125 2.617188 -67 2.859375 -69.625 C 3.097656 -72.25 3.992188 -75.414062 5.546875 -79.125 L 5.375 -79.125 C 5.488281 -79.832031 5.632812 -80.546875 5.8125 -81.265625 C 6 -81.984375 6.207031 -82.460938 6.4375 -82.703125 L 6.4375 -82.515625 L 6.265625 -81.984375 Z M 4.46875 -50.65625 L 4.46875 -37.40625 C 4.46875 -26.90625 6.226562 -18.222656 9.75 -11.359375 C 13.269531 -4.503906 19.625 -0.300781 28.8125 1.25 L 37.234375 1.4375 C 41.285156 1.675781 44.445312 1.796875 46.71875 1.796875 C 52.320312 1.796875 57.09375 1.195312 61.03125 0 C 64.976562 -1.195312 68.082031 -3.40625 70.34375 -6.625 C 72.375 -8.65625 73.71875 -13.1875 74.375 -20.21875 C 75.03125 -27.257812 75.597656 -36.75 76.078125 -48.6875 C 76.078125 -49.757812 75.957031 -53.609375 75.71875 -60.234375 C 75.476562 -66.859375 74.789062 -72.164062 73.65625 -76.15625 C 72.519531 -80.15625 70.878906 -82.8125 68.734375 -84.125 C 63.367188 -89.375 55.550781 -92 45.28125 -92 L 38.484375 -91.828125 C 36.929688 -91.828125 35.738281 -91.882812 34.90625 -92 C 28.820312 -92 23.210938 -91.101562 18.078125 -89.3125 C 12.941406 -87.53125 9.601562 -84.96875 8.0625 -81.625 C 6.75 -76.96875 5.789062 -72.847656 5.1875 -69.265625 C 4.59375 -65.691406 4.296875 -61.992188 4.296875 -58.171875 Z M 41.171875 -64.984375 C 49.523438 -64.984375 53.703125 -58.773438 53.703125 -46.359375 C 53.703125 -41.222656 53.460938 -37.132812 52.984375 -34.09375 C 52.503906 -31.050781 51.25 -28.578125 49.21875 -26.671875 C 47.195312 -24.765625 44.097656 -23.8125 39.921875 -23.8125 C 36.335938 -23.8125 33.410156 -24.585938 31.140625 -26.140625 C 28.878906 -27.691406 27.75 -30.195312 27.75 -33.65625 C 27.863281 -35.207031 27.921875 -37.953125 27.921875 -41.890625 C 27.921875 -47.378906 28.066406 -51.644531 28.359375 -54.6875 C 28.660156 -57.726562 29.351562 -59.664062 30.4375 -60.5 C 32.820312 -63.488281 36.398438 -64.984375 41.171875 -64.984375 Z M 35.078125 -55.484375 C 34.128906 -54.890625 33.5625 -52.175781 33.375 -47.34375 C 33.195312 -42.507812 33.109375 -36.691406 33.109375 -29.890625 C 33.109375 -27.984375 33.703125 -26.789062 34.890625 -26.3125 C 36.085938 -25.832031 37.765625 -25.59375 39.921875 -25.59375 C 47.203125 -25.59375 50.84375 -28.097656 50.84375 -33.109375 C 51.550781 -39.554688 51.90625 -44.210938 51.90625 -47.078125 C 51.90625 -51.015625 51.457031 -54.054688 50.5625 -56.203125 C 49.664062 -58.347656 47.609375 -59.421875 44.390625 -59.421875 C 43.671875 -59.421875 42.359375 -59.300781 40.453125 -59.0625 L 40.640625 -59.0625 C 38.367188 -58.46875 36.632812 -57.394531 35.4375 -55.84375 Z M 35.078125 -55.484375 "/></g></g></g><g fill="#ff26b9" fill-opacity="1"><g transform="translate(549.874759, 389.54218)"><g><path d="M 81.09375 -110.625 C 81.09375 -99.757812 81.328125 -83.945312 81.796875 -63.1875 C 81.921875 -58.050781 82.039062 -51.722656 82.15625 -44.203125 C 82.28125 -36.691406 82.34375 -28.046875 82.34375 -18.265625 C 82.34375 -7.285156 82.28125 0.53125 82.15625 5.1875 L 71.421875 5.375 C 69.035156 5.488281 65.515625 5.546875 60.859375 5.546875 C 58.710938 5.546875 57.070312 5.304688 55.9375 4.828125 C 54.800781 4.347656 54.234375 3.394531 54.234375 1.96875 L 54.234375 1.609375 L 51.90625 1.4375 L 51.546875 1.078125 C 48.441406 3.703125 44.566406 5.015625 39.921875 5.015625 C 34.671875 5.015625 30.046875 4.054688 26.046875 2.140625 C 22.046875 0.234375 18.734375 -2.269531 16.109375 -5.375 C 6.679688 -12.882812 1.96875 -28.097656 1.96875 -51.015625 C 1.96875 -60.203125 3.28125 -68.316406 5.90625 -75.359375 C 8.53125 -82.398438 12.46875 -86.9375 17.71875 -88.96875 C 22.132812 -90.75 27.6875 -91.640625 34.375 -91.640625 C 41.53125 -91.640625 47.019531 -90.628906 50.84375 -88.609375 L 50.484375 -106.859375 C 50.484375 -109.609375 50.601562 -112.890625 50.84375 -116.703125 L 51.375 -123.875 L 51.375 -125.84375 C 51.375 -126.4375 52.832031 -127.03125 55.75 -127.625 C 58.675781 -128.21875 61.867188 -128.515625 65.328125 -128.515625 C 69.984375 -128.515625 74.039062 -128.160156 77.5 -127.453125 L 77.5 -124.40625 L 81.09375 -123.875 Z M 76.796875 -0.171875 C 76.910156 -4.347656 76.96875 -10.851562 76.96875 -19.6875 C 76.96875 -29.351562 76.90625 -37.972656 76.78125 -45.546875 C 76.664062 -53.128906 76.550781 -59.546875 76.4375 -64.796875 C 75.957031 -86.273438 75.71875 -102.742188 75.71875 -114.203125 L 75.71875 -126.015625 C 73.207031 -126.492188 69.742188 -126.734375 65.328125 -126.734375 C 62.347656 -126.734375 59.570312 -126.640625 57 -126.453125 C 54.4375 -126.273438 53.15625 -126.070312 53.15625 -125.84375 L 53.15625 -123.875 L 52.8125 -117.609375 C 52.570312 -115.335938 52.453125 -111.753906 52.453125 -106.859375 L 52.453125 -98.625 C 52.453125 -93.257812 52.507812 -88.726562 52.625 -85.03125 C 52.144531 -86.34375 50.113281 -87.472656 46.53125 -88.421875 C 42.957031 -89.378906 38.84375 -89.859375 34.1875 -89.859375 C 28.820312 -89.859375 23.515625 -89.023438 18.265625 -87.359375 C 13.242188 -85.566406 9.570312 -81.328125 7.25 -74.640625 C 4.925781 -67.960938 3.765625 -60.085938 3.765625 -51.015625 C 3.992188 -40.753906 4.851562 -32.101562 6.34375 -25.0625 C 7.84375 -18.019531 11.007812 -12.140625 15.84375 -7.421875 C 20.675781 -2.710938 27.804688 -0.359375 37.234375 -0.359375 C 43.316406 -0.359375 47.734375 -2.984375 50.484375 -8.234375 C 50.597656 -8.710938 50.832031 -8.953125 51.1875 -8.953125 C 51.664062 -8.953125 52.082031 -7.578125 52.4375 -4.828125 C 52.800781 -2.085938 52.863281 -0.597656 52.625 -0.359375 C 55.375 -0.00390625 58.414062 0.171875 61.75 0.171875 L 69.625 0 C 71.300781 -0.113281 73.691406 -0.171875 76.796875 -0.171875 Z M 42.421875 -69.09375 C 46.003906 -69.09375 48.507812 -68.644531 49.9375 -67.75 C 51.375 -66.851562 52.300781 -65.09375 52.71875 -62.46875 C 53.132812 -59.84375 53.34375 -55.191406 53.34375 -48.515625 C 53.34375 -42.546875 53.070312 -37.769531 52.53125 -34.1875 C 52 -30.601562 50.804688 -27.765625 48.953125 -25.671875 C 47.109375 -23.585938 44.273438 -22.546875 40.453125 -22.546875 C 35.554688 -22.546875 31.617188 -24.875 28.640625 -29.53125 C 25.660156 -34.1875 24.171875 -39.675781 24.171875 -46 C 24.171875 -50.65625 24.585938 -54.117188 25.421875 -56.390625 C 26.734375 -64.859375 32.398438 -69.09375 42.421875 -69.09375 Z M 51.546875 -55.3125 C 51.546875 -58.53125 51.21875 -60.734375 50.5625 -61.921875 C 49.90625 -63.117188 48.382812 -63.71875 46 -63.71875 C 36.9375 -63.71875 31.863281 -60.019531 30.78125 -52.625 L 30.609375 -52.265625 C 29.890625 -50.597656 29.53125 -48.09375 29.53125 -44.75 C 29.53125 -31.144531 33.171875 -24.34375 40.453125 -24.34375 C 43.796875 -24.34375 46.269531 -25.328125 47.875 -27.296875 C 49.488281 -29.265625 50.503906 -31.890625 50.921875 -35.171875 C 51.335938 -38.453125 51.546875 -42.898438 51.546875 -48.515625 Z M 51.546875 -55.3125 "/></g></g></g></svg>